<?xml version="1.0" encoding="iso-8859-1"?>
<!-- Generator: Adobe Illustrator 19.0.0, SVG Export Plug-In . SVG Version: 6.00 Build 0)  -->
<svg version="1.1" id="Capa_1" xmlns="http://www.w3.org/2000/svg" xmlns:xlink="http://www.w3.org/1999/xlink" x="0px" y="0px"
	 viewBox="0 0 512 512" style="enable-background:new 0 0 512 512;" xml:space="preserve">
<g>
	<path style="fill:#FEDB41;" d="M46,212c-3.839,0-7.678-1.464-10.606-4.393c-5.858-5.858-5.858-15.355,0-21.213l60-60
		c5.857-5.858,15.355-5.858,21.213,0s5.858,15.355,0,21.213l-60,60C53.678,210.536,49.839,212,46,212z"/>
	<path style="fill:#FEDB41;" d="M466,212c-3.839,0-7.678-1.464-10.606-4.393l-60-60c-5.858-5.858-5.858-15.355,0-21.213
		c5.857-5.858,15.355-5.858,21.213,0l60,60c5.858,5.858,5.858,15.355,0,21.213C473.678,210.536,469.839,212,466,212z"/>
</g>
<path style="fill:#A4D9F5;" d="M406,272c-8.284,0-15-6.716-15-15V30H121v227c0,8.284-6.716,15-15,15s-15-6.716-15-15V15
	c0-8.284,6.716-15,15-15h300c8.284,0,15,6.716,15,15v242C421,265.284,414.284,272,406,272z"/>
<g>
	<path style="fill:#1689FC;" d="M255.853,270.027c-19.842,0-39.18-5.55-56.365-16.56C169.126,234.015,151,200.943,151,165
		c0-57.897,47.103-105,105-105s105,47.103,105,105c0,24.813-20.187,45-45,45c-23.191,0-42.341-17.635-44.746-40.199
		c-0.935-3.308-0.709-6.854,0.668-10.038l0.312-0.72c2.824-6.527,9.845-10.175,16.808-8.732C296.006,151.754,301,157.888,301,165
		c0,0.076,0.001,0.152,0.002,0.228c0.006,0.139,0.01,0.281,0.012,0.42C301.354,173.62,307.946,180,316,180c8.271,0,15-6.729,15-15
		c0-41.355-33.645-75-75-75s-75,33.645-75,75c0,25.669,12.961,49.298,34.671,63.207c22.249,14.255,49.843,15.608,75.703,3.709
		c7.527-3.462,16.435-0.167,19.896,7.358c3.463,7.526,0.168,16.434-7.357,19.896C288.147,266.424,271.836,270.027,255.853,270.027z"
		/>
	<path style="fill:#1689FC;" d="M256,210c-24.813,0-45-20.187-45-45s20.187-45,45-45c24.813,0,45,20.187,45,45S280.813,210,256,210z
		 M256,150c-8.271,0-15,6.729-15,15s6.729,15,15,15c8.271,0,15-6.729,15-15S264.271,150,256,150z"/>
</g>
<g>
	<path style="fill:#FEDB41;" d="M196,362c-3.839,0-7.678-1.464-10.606-4.394l-150-150c-5.858-5.858-5.858-15.355,0-21.213
		c5.857-5.858,15.355-5.858,21.213,0l150,150c5.858,5.858,5.858,15.355,0,21.213C203.678,360.536,199.839,362,196,362z"/>
	<path style="fill:#FEDB41;" d="M316,362c-3.839,0-7.678-1.464-10.606-4.394c-5.858-5.858-5.858-15.355,0-21.213l150-150
		c5.857-5.858,15.355-5.858,21.213,0s5.858,15.355,0,21.213l-150,150C323.678,360.536,319.839,362,316,362z"/>
</g>
<g>
	<path style="fill:#FEA832;" d="M54.787,503.213c-3.839,0-7.678-1.464-10.606-4.394c-5.858-5.857-5.858-15.355,0-21.213
		l141.213-141.214c5.857-5.858,15.355-5.858,21.213,0s5.858,15.355,0,21.213L65.394,498.82
		C62.465,501.749,58.626,503.213,54.787,503.213z"/>
	<path style="fill:#FEA832;" d="M457.213,503.213c-3.839,0-7.678-1.464-10.606-4.394L305.394,357.606
		c-5.858-5.858-5.858-15.355,0-21.213s15.356-5.858,21.213,0L467.82,477.607c5.858,5.858,5.858,15.355,0,21.213
		C464.891,501.749,461.051,503.213,457.213,503.213z"/>
	<path style="fill:#FEA832;" d="M316,362H196c-8.284,0-15-6.716-15-15s6.716-15,15-15h120c8.284,0,15,6.716,15,15
		S324.284,362,316,362z"/>
</g>
<path style="fill:#FEDB41;" d="M436,512H76c-24.813,0-45-20.187-45-45V197c0-8.284,6.716-15,15-15s15,6.716,15,15v270
	c0,8.271,6.729,15,15,15h360c8.271,0,15-6.729,15-15V197c0-8.284,6.716-15,15-15s15,6.716,15,15v270
	C481,491.813,460.813,512,436,512z"/>
<g>
</g>
<g>
</g>
<g>
</g>
<g>
</g>
<g>
</g>
<g>
</g>
<g>
</g>
<g>
</g>
<g>
</g>
<g>
</g>
<g>
</g>
<g>
</g>
<g>
</g>
<g>
</g>
<g>
</g>
</svg>
