<svg width="22" height="22" viewBox="0 0 12 12" fill="none" xmlns="http://www.w3.org/2000/svg">
<path d="M6.17576 10.9201C4.8243 10.9201 3.5282 10.3832 2.57257 9.42759C1.61694 8.47196 1.08008 7.17585 1.08008 5.82439C1.08008 3.75976 2.26614 1.90862 4.10257 1.10935C4.16729 1.08114 4.23901 1.07308 4.30837 1.08622C4.37774 1.09936 4.44155 1.13309 4.49147 1.18301C4.54139 1.23293 4.57512 1.29673 4.58826 1.3661C4.6014 1.43547 4.59334 1.50719 4.56513 1.57191C4.35428 2.056 4.24292 2.67605 4.24292 3.36441C4.24292 5.78661 6.21354 7.75724 8.63575 7.75724C9.32411 7.75724 9.94415 7.64588 10.4282 7.43502C10.493 7.40682 10.5647 7.39876 10.6341 7.4119C10.7034 7.42504 10.7672 7.45876 10.8171 7.50869C10.8671 7.55861 10.9008 7.62241 10.9139 7.69178C10.9271 7.76115 10.919 7.83287 10.8908 7.89759C10.0915 9.73401 8.2404 10.9201 6.17576 10.9201Z" fill="white"/>
</svg>
