<?xml version="1.0" encoding="utf-8"?>
<!-- Generator: Adobe Illustrator 26.0.1, SVG Export Plug-In . SVG Version: 6.00 Build 0)  -->
<svg version="1.1" id="Layer_1" xmlns="http://www.w3.org/2000/svg" xmlns:xlink="http://www.w3.org/1999/xlink" x="0px" y="0px"
	 viewBox="0 0 500 500" style="enable-background:new 0 0 500 500;" xml:space="preserve">
<style type="text/css">
	.st0{fill:#FAFAFA;}
	.st1{display:none;}
	.st2{display:inline;fill:#E0E0E0;}
	.st3{display:inline;}
	.st4{fill:#E6E6E6;}
	.st5{opacity:0.1;enable-background:new    ;}
	.st6{fill:#E0E0E0;}
	.st7{fill:#F5F5F5;}
	.st8{fill:#EBEBEB;}
	.st9{fill:#407BFF;}
	.st10{opacity:0.2;fill:#FFFFFF;enable-background:new    ;}
	.st11{opacity:0.5;enable-background:new    ;}
	.st12{fill:#263238;}
	.st13{opacity:0.2;enable-background:new    ;}
	.st14{fill:#455A64;}
	.st15{opacity:0.7;enable-background:new    ;}
	.st16{opacity:0.35;fill:#FFFFFF;enable-background:new    ;}
	.st17{opacity:0.4;fill:#407BFF;enable-background:new    ;}
	.st18{fill:#FFFFFF;}
	.st19{opacity:0.15;}
	.st20{opacity:0.4;fill:#FFFFFF;enable-background:new    ;}
	.st21{opacity:0.6;fill:#FFFFFF;enable-background:new    ;}
	.st22{opacity:0.3;fill:#407BFF;enable-background:new    ;}
	.st23{fill:#37474F;}
	.st24{opacity:0.3;fill:#FFFFFF;enable-background:new    ;}
	.st25{opacity:0.8;fill:#FFFFFF;enable-background:new    ;}
	.st26{opacity:5.000000e-02;enable-background:new    ;}
	.st27{opacity:0.95;fill:#FFFFFF;enable-background:new    ;}
	.st28{opacity:0.5;fill:#FFFFFF;enable-background:new    ;}
	.st29{opacity:0.6;enable-background:new    ;}
	.st30{opacity:0.3;enable-background:new    ;}
	.st31{opacity:0.2;}
	.st32{opacity:0.65;}
	.st33{opacity:0.17;}
	.st34{fill:#F28F8F;}
	.st35{fill:#F0F0F0;}
	.st36{fill:#FFA8A7;}
	.st37{opacity:0.5;}
	.st38{opacity:0.7;}
	.st39{fill:#B16668;}
	.st40{opacity:0.65;fill:#FFFFFF;enable-background:new    ;}
	.st41{opacity:0.25;enable-background:new    ;}
	.st42{fill:#F3F7FF;}
	.st43{font-family:'MyriadPro-Regular';}
	.st44{font-size:59.1388px;}
</style>
<g id="freepik--Floor--inject-2">
	<ellipse id="freepik--floor--inject-2" class="st0" cx="250" cy="352.1" rx="246.1" ry="142.1"/>
</g>
<g id="freepik--Shadows--inject-2" class="st1">
	<path id="freepik--Shadow--inject-2" class="st2" d="M359.3,332.5l86-49.7c0.6-0.2,0.9-0.8,0.7-1.4c-0.1-0.3-0.4-0.6-0.7-0.7
		l-113.6-65.6c-1.2-0.6-2.5-0.6-3.7,0l-86,49.7c-0.6,0.2-0.9,0.8-0.7,1.4c0.1,0.3,0.4,0.6,0.7,0.7l113.6,65.6
		C356.8,333.1,358.1,333.1,359.3,332.5z"/>
	<path id="freepik--shadow--inject-2" class="st2" d="M286.6,409.9c10.2,3.6,19.9,8.4,28.9,14.3c10.1,6.6,19.4,14.6,30.2,20.1
		c14,7.1,30.1,9.7,45.8,8.9c8.9-0.4,18.6-2.4,24.2-9.2c1.5-1.7,2.5-3.9,2.6-6.2c0-3.4-2.3-6.2-4.8-8.5c-13-12.3-31.1-17.3-48.5-21.2
		s-27.9-8.8-45-17.7c-7.3-3.8-14.5-7.9-21.9-11.5l-0.2-0.1c-3.6-1.9-7.4-3.7-11.2-5.2c-6.3-2.4-12.8-4.1-19.4-5
		c-6.7-0.9-13.5-0.1-19.7,2.4c-1.6,0.6-3.1,1.6-4.1,3c-0.8,1.3-1.1,2.7-1,4.2c0.2,3,1.3,5.8,3.1,8.2c1.8,2.3,4,4.4,6.3,6.2
		C262.1,400.6,274.5,405.6,286.6,409.9z"/>
	<path id="freepik--shadow--inject-2_00000031208502787055853880000011333751638913198512_" class="st2" d="M83.6,436.8l-54.9-31.7
		c-1.6-0.9-1.6-2.5,0-3.4l162.6-93.9c1.9-0.9,4-0.9,5.9,0l54.9,31.7c1.6,0.9,1.6,2.5,0,3.4L89.5,436.8
		C87.6,437.7,85.4,437.7,83.6,436.8z"/>
</g>
<g id="freepik--Gears--inject-2" class="st1">
	<g id="freepik--Gear--inject-2" class="st3">
		<path class="st4" d="M232.5,413.2c0,0.4-0.3,0.8-0.7,1l-6.4,3.3c-0.9,0.5-1.2,1.5-0.8,2.4c0.3,0.6,0.5,1.1,0.6,1.7
			c0.3,1,1.1,1.8,2.1,2l1.7,0.3l2.8-1.4c0.4-0.2,0.7-0.6,0.7-1l0,0L232.5,413.2z M182.4,416.2c-7.5,3.1-10.2,8.7-7,13.4
			c1.8-2.3,4.1-4.1,6.9-5.1c8.7-3.6,20.5-2.5,26.4,2.5c0.8,0.6,1.4,1.3,2,2.1c2.3-3.4,1.8-7.3-1.9-10.4
			C203,413.8,191.1,412.7,182.4,416.2L182.4,416.2z M237.3,426.6c0,0.2,0,0.3-0.1,0.5l-1.4,4.5c-0.4,1-1.3,1.6-2.3,1.7l-9.1-0.3
			c-0.5,0-1,0.1-1.4,0.3c-0.6,0.2-1.1,0.6-1.5,1c-0.7,0.7-1.4,1.4-2.2,2c-0.7,0.5-0.9,1.5-0.4,2.2c0,0.1,0.1,0.1,0.1,0.2l3.1,3.4
			c0.2-0.2,0.5-0.3,0.8-0.4l0,0c0.4-0.2,0.9-0.3,1.4-0.3l9.1,0.3c1,0,2-0.7,2.3-1.7l1.4-4.5c0.1-0.2,0.1-0.3,0.1-0.5l0,0
			L237.3,426.6z M163.4,415.4L163.4,415.4c0,0.3,0.1,0.7,0.4,0.9l0.4,0.5c0.3-0.2,0.5-0.4,0.8-0.6c0.7-0.7,1.4-1.4,2.2-2
			c0.7-0.5,0.9-1.5,0.4-2.2c0-0.1-0.1-0.1-0.1-0.2l-3.6-3.9c-0.2-0.2-0.3-0.4-0.4-0.7L163.4,415.4z M222.9,443.4
			c0,0.5-0.4,0.9-0.8,1.1l-8,3.3c-0.6,0.3-1.3,0.3-2,0.2c-0.4-0.1-0.7-0.2-1-0.4l-5.4-3.6c-1-0.6-2.1-0.8-3.2-0.6
			c-1.7,0.3-3.4,0.5-5.2,0.7c-0.6,0.1-1.2,0.3-1.7,0.8c-0.4,0.3-0.7,0.6-0.9,1l-2,3.9c-0.3,0.6-0.8,1-1.5,1.3
			c-0.4,0.1-0.7,0.2-1.1,0.2l-9.9-0.9c-0.9-0.1-1.6-0.9-1.5-1.9c0,0,0-0.1,0-0.1l0.5-3.8c0.1-1-0.5-1.9-1.5-2.3
			c-1.4-0.4-2.8-0.9-4.1-1.5c-1.1-0.4-2.2-0.5-3.3-0.2h-0.1l-7.7,2.5c-0.6,0.2-1.3,0.2-1.9,0c-0.4-0.1-0.8-0.3-1.1-0.6l-5-4.2
			c-0.3-0.2-0.5-0.5-0.5-0.9l-0.1,8.3c0,0.4,0.2,0.7,0.5,0.9l5,4.2c0.6,0.5,1.3,0.7,2.1,0.7c0.1,0,0.3,0,0.4,0h0.1
			c0.1,0,0.3,0,0.4-0.1l7.7-2.5h0.1c1.1-0.3,2.2-0.2,3.3,0.2c1.3,0.6,2.7,1.1,4.1,1.5c0.4,0.1,0.7,0.4,1,0.7l-0.1,5.6
			c0,0.9,0.7,1.6,1.5,1.7l9.9,0.9c0.4,0,0.8,0,1.1-0.2c0.2-0.1,0.5-0.2,0.7-0.4c0.1-0.1,0.2-0.1,0.3-0.2l0,0
			c0.1-0.1,0.2-0.2,0.2-0.2c0.1-0.1,0.2-0.2,0.2-0.3l0.1-0.1l2-3.9c0.1-0.1,0.1-0.2,0.2-0.3c0.1-0.1,0.1-0.2,0.2-0.2
			c0.1-0.2,0.3-0.3,0.4-0.4c0.5-0.4,1.1-0.7,1.7-0.7c1.7-0.2,3.5-0.4,5.2-0.7c1.1-0.2,2.2,0,3.2,0.6l5.3,3.5c0.3,0.2,0.6,0.3,1,0.4
			l0,0l0.3,0c0.4,0.1,0.8,0.1,1.2,0c0.1,0,0.2,0,0.3-0.1c0.1,0,0.2-0.1,0.4-0.1l8-3.3c0.3-0.1,0.5-0.3,0.7-0.6
			c0.1-0.2,0.1-0.3,0.1-0.5L222.9,443.4z M150.4,425.4c-0.7-0.1-1.3-0.7-1.3-1.4l-0.1,8.3l0,0c0,0.7,0.5,1.4,1.3,1.5l7,1.1l3.7-1.9
			c0.9-0.5,1.2-1.5,0.8-2.4c-0.3-0.6-0.5-1.1-0.6-1.7c-0.3-1-1.1-1.7-2.1-2L150.4,425.4z"/>
		<path class="st5" d="M232.5,413.2c0,0.4-0.3,0.8-0.7,1l-6.4,3.3c-0.9,0.5-1.2,1.5-0.8,2.4c0.3,0.6,0.5,1.1,0.6,1.7
			c0.3,1,1.1,1.8,2.1,2l1.7,0.3l2.8-1.4c0.4-0.2,0.7-0.6,0.7-1l0,0L232.5,413.2z M182.4,416.2c-7.5,3.1-10.2,8.7-7,13.4
			c1.8-2.3,4.1-4.1,6.9-5.1c8.7-3.6,20.5-2.5,26.4,2.5c0.8,0.6,1.4,1.3,2,2.1c2.3-3.4,1.8-7.3-1.9-10.4
			C203,413.8,191.1,412.7,182.4,416.2L182.4,416.2z M237.3,426.6c0,0.2,0,0.3-0.1,0.5l-1.4,4.5c-0.4,1-1.3,1.6-2.3,1.7l-9.1-0.3
			c-0.5,0-1,0.1-1.4,0.3c-0.6,0.2-1.1,0.6-1.5,1c-0.7,0.7-1.4,1.4-2.2,2c-0.7,0.5-0.9,1.5-0.4,2.2c0,0.1,0.1,0.1,0.1,0.2l3.1,3.4
			c0.2-0.2,0.5-0.3,0.8-0.4l0,0c0.4-0.2,0.9-0.3,1.4-0.3l9.1,0.3c1,0,2-0.7,2.3-1.7l1.4-4.5c0.1-0.2,0.1-0.3,0.1-0.5l0,0
			L237.3,426.6z M163.4,415.4L163.4,415.4c0,0.3,0.1,0.7,0.4,0.9l0.4,0.5c0.3-0.2,0.5-0.4,0.8-0.6c0.7-0.7,1.4-1.4,2.2-2
			c0.7-0.5,0.9-1.5,0.4-2.2c0-0.1-0.1-0.1-0.1-0.2l-3.6-3.9c-0.2-0.2-0.3-0.4-0.4-0.7L163.4,415.4z M222.9,443.4
			c0,0.5-0.4,0.9-0.8,1.1l-8,3.3c-0.6,0.3-1.3,0.3-2,0.2c-0.4-0.1-0.7-0.2-1-0.4l-5.4-3.6c-1-0.6-2.1-0.8-3.2-0.6
			c-1.7,0.3-3.4,0.5-5.2,0.7c-0.6,0.1-1.2,0.3-1.7,0.8c-0.4,0.3-0.7,0.6-0.9,1l-2,3.9c-0.3,0.6-0.8,1-1.5,1.3
			c-0.4,0.1-0.7,0.2-1.1,0.2l-9.9-0.9c-0.9-0.1-1.6-0.9-1.5-1.9c0,0,0-0.1,0-0.1l0.5-3.8c0.1-1-0.5-1.9-1.5-2.3
			c-1.4-0.4-2.8-0.9-4.1-1.5c-1.1-0.4-2.2-0.5-3.3-0.2h-0.1l-7.7,2.5c-0.6,0.2-1.3,0.2-1.9,0c-0.4-0.1-0.8-0.3-1.1-0.6l-5-4.2
			c-0.3-0.2-0.5-0.5-0.5-0.9l-0.1,8.3c0,0.4,0.2,0.7,0.5,0.9l5,4.2c0.6,0.5,1.3,0.7,2.1,0.7c0.1,0,0.3,0,0.4,0h0.1
			c0.1,0,0.3,0,0.4-0.1l7.7-2.5h0.1c1.1-0.3,2.2-0.2,3.3,0.2c1.3,0.6,2.7,1.1,4.1,1.5c0.4,0.1,0.7,0.4,1,0.7l-0.1,5.6
			c0,0.9,0.7,1.6,1.5,1.7l9.9,0.9c0.4,0,0.8,0,1.1-0.2c0.2-0.1,0.5-0.2,0.7-0.4c0.1-0.1,0.2-0.1,0.3-0.2l0,0
			c0.1-0.1,0.2-0.2,0.2-0.2c0.1-0.1,0.2-0.2,0.2-0.3l0.1-0.1l2-3.9c0.1-0.1,0.1-0.2,0.2-0.3c0.1-0.1,0.1-0.2,0.2-0.2
			c0.1-0.2,0.3-0.3,0.4-0.4c0.5-0.4,1.1-0.7,1.7-0.7c1.7-0.2,3.5-0.4,5.2-0.7c1.1-0.2,2.2,0,3.2,0.6l5.3,3.5c0.3,0.2,0.6,0.3,1,0.4
			l0,0l0.3,0c0.4,0.1,0.8,0.1,1.2,0c0.1,0,0.2,0,0.3-0.1c0.1,0,0.2-0.1,0.4-0.1l8-3.3c0.3-0.1,0.5-0.3,0.7-0.6
			c0.1-0.2,0.1-0.3,0.1-0.5L222.9,443.4z M150.4,425.4c-0.7-0.1-1.3-0.7-1.3-1.4l-0.1,8.3l0,0c0,0.7,0.5,1.4,1.3,1.5l7,1.1l3.7-1.9
			c0.9-0.5,1.2-1.5,0.8-2.4c-0.3-0.6-0.5-1.1-0.6-1.7c-0.3-1-1.1-1.7-2.1-2L150.4,425.4z"/>
		<path class="st6" d="M170.1,440.6l-7.7,2.5c-0.6,0.2-1.3,0.2-1.9,0l-0.1,8.3c0.3,0.1,0.7,0.1,1,0.2c0.1,0,0.3,0,0.4,0h0.1
			c0.1,0,0.3,0,0.4-0.1l7.7-2.5L170.1,440.6z"/>
		<path class="st6" d="M195.5,444.9c-0.4,0.3-0.7,0.6-0.9,1l-2,3.9c-0.3,0.6-0.8,1-1.5,1.3l-0.1,8.3c0.2-0.1,0.5-0.2,0.7-0.4
			c0.1-0.1,0.2-0.1,0.3-0.2l0,0c0.1-0.1,0.2-0.2,0.2-0.2c0.1-0.1,0.2-0.2,0.2-0.3l0.1-0.1l2-3.9c0.1-0.2,0.2-0.4,0.4-0.6
			c0.1-0.1,0.3-0.3,0.4-0.4l0,0L195.5,444.9z"/>
		<path class="st6" d="M232.6,413.2c0,0.4-0.3,0.8-0.8,1l-6.4,3.3c-0.9,0.5-1.2,1.5-0.8,2.4c0.3,0.6,0.5,1.1,0.6,1.7
			c0.3,1,1.1,1.8,2.1,2l1.6,0.3l2.8-1.4c0.4-0.2,0.7-0.6,0.7-1l0,0L232.6,413.2z"/>
		<path class="st6" d="M237.3,426.6c0,0.2,0,0.3-0.1,0.5l-1.4,4.5c-0.4,1-1.3,1.6-2.3,1.7l-9.1-0.3c-0.5,0-1,0.1-1.4,0.3l-0.1,8.3
			c0.4-0.2,0.9-0.3,1.4-0.3l9.1,0.3c1,0,2-0.7,2.3-1.7l1.4-4.5c0.1-0.2,0.1-0.3,0.1-0.5l0,0L237.3,426.6z"/>
		<path class="st6" d="M222.9,443.4c0,0.5-0.4,0.9-0.8,1.1l-8,3.3c-0.6,0.3-1.4,0.3-2,0.2l-0.1,8.3l0.3,0c0.4,0.1,0.8,0.1,1.2,0
			c0.1,0,0.2,0,0.3-0.1c0.1,0,0.2-0.1,0.4-0.1l8-3.3c0.3-0.1,0.5-0.3,0.7-0.6c0.1-0.2,0.1-0.3,0.1-0.5L222.9,443.4z"/>
		<path class="st7" d="M224,407.5l-7.8,2.5c-1.1,0.3-2.2,0.2-3.3-0.2c-1.3-0.6-2.7-1.1-4.1-1.5c-1-0.3-1.6-1.3-1.5-2.3l0.5-3.8
			c0.1-0.9-0.5-1.8-1.4-1.9c0,0-0.1,0-0.1,0l-9.9-0.9c-1.1,0-2.1,0.5-2.6,1.4l-2,3.9c-0.6,0.9-1.5,1.6-2.6,1.7
			c-1.7,0.1-3.5,0.4-5.2,0.7c-1.1,0.2-2.2-0.1-3.2-0.6l-5.3-3.6c-0.9-0.5-2.1-0.7-3.1-0.3l-8,3.3c-0.6,0.2-1,0.8-0.8,1.4
			c0.1,0.2,0.2,0.4,0.4,0.6l3.6,3.9c0.6,0.6,0.5,1.6-0.1,2.2c0,0-0.1,0.1-0.2,0.1c-0.8,0.6-1.5,1.3-2.2,2c-0.8,0.8-1.9,1.3-3,1.3
			l-9.1-0.3c-1,0-2,0.7-2.3,1.7l-1.4,4.5c-0.3,0.8,0.1,1.6,0.9,1.9c0.1,0,0.2,0.1,0.3,0.1l8.6,1.4c1,0.2,1.8,1,2.1,2
			c0.2,0.6,0.4,1.2,0.6,1.7c0.5,0.9,0.2,1.9-0.7,2.4l-6.4,3.3c-0.6,0.2-0.9,0.8-0.7,1.4c0.1,0.3,0.3,0.5,0.5,0.6l5,4.2
			c0.9,0.6,2,0.8,3,0.6l7.8-2.5c1.1-0.3,2.2-0.2,3.3,0.2c1.3,0.6,2.7,1.1,4.1,1.5c1,0.3,1.6,1.3,1.5,2.3l-0.5,3.8
			c-0.1,0.9,0.5,1.8,1.4,1.9c0,0,0.1,0,0.1,0l9.9,0.9c1.1,0,2.1-0.5,2.6-1.4l2-3.9c0.6-0.9,1.5-1.6,2.6-1.7c1.7-0.2,3.5-0.4,5.2-0.7
			c1.1-0.2,2.2,0.1,3.2,0.6l5.3,3.5c0.9,0.5,2.1,0.6,3.1,0.3l8-3.3c0.6-0.2,1-0.8,0.8-1.4c-0.1-0.2-0.2-0.4-0.4-0.6l-3.6-3.9
			c-0.6-0.6-0.6-1.6,0.1-2.2c0.1-0.1,0.1-0.1,0.2-0.1c0.8-0.6,1.5-1.3,2.2-2c0.8-0.8,1.9-1.3,3-1.3l9.1,0.3c1,0,2-0.7,2.3-1.7
			l1.4-4.5c0.3-0.8-0.1-1.6-0.9-1.9c-0.1,0-0.2-0.1-0.3-0.1l-8.6-1.4c-1-0.2-1.8-1-2.1-2c-0.2-0.6-0.4-1.2-0.6-1.7
			c-0.4-0.9-0.1-1.9,0.8-2.4l6.4-3.3c0.6-0.2,0.9-0.8,0.7-1.4c-0.1-0.3-0.3-0.5-0.5-0.6l-5-4.2C226.1,407.4,225,407.2,224,407.5z
			 M208.9,418.8c5.9,5,3.7,12-5,15.5s-20.5,2.5-26.4-2.5s-3.7-11.9,5-15.5S203,413.8,208.9,418.8L208.9,418.8z"/>
		<path class="st8" d="M196.2,400.3L196.2,400.3l10,0.9c0.2,0,0.4,0.1,0.5,0.3c0.1,0.2,0.2,0.4,0.1,0.6l-0.5,3.8
			c-0.2,1.5,0.7,2.9,2.1,3.3c1.4,0.4,2.7,0.9,4,1.5c0.8,0.3,1.6,0.4,2.4,0.4c0.5,0,1.1-0.1,1.6-0.2l7.8-2.6c0.2-0.1,0.4-0.1,0.6-0.1
			c0.5,0,1.1,0.2,1.5,0.5l5,4.2c0.1,0,0.1,0.1,0.1,0.2c-0.1,0.1-0.1,0.1-0.2,0.2l-6.4,3.3c-1.3,0.7-1.9,2.3-1.2,3.6
			c0.2,0.5,0.4,1.1,0.6,1.6c0.4,1.4,1.5,2.4,2.9,2.7l8.6,1.4c0.2,0,0.3,0.1,0.4,0.2c0.1,0.2,0.1,0.3,0,0.5l-1.4,4.5
			c-0.2,0.6-0.7,1-1.4,1l0,0l-9.1-0.3h-0.1c-1.4,0.1-2.6,0.6-3.6,1.6c-0.7,0.7-1.4,1.3-2.1,1.9c-0.6,0.5-1,1.1-1,1.9
			c-0.1,0.7,0.2,1.4,0.7,1.9l3.6,3.9c0.1,0.1,0.1,0.1,0.1,0.2c0,0-0.1,0.1-0.2,0.2l-8,3.3c-0.3,0.1-0.6,0.1-0.8,0.1
			c-0.5,0-0.9-0.1-1.4-0.3l-5.3-3.5c-0.9-0.6-2-0.8-3.1-0.8c-0.3,0-0.6,0-0.9,0.1c-1.6,0.3-3.4,0.5-5.1,0.7c-1.4,0.2-2.7,1-3.4,2.3
			l-2,3.9c-0.3,0.5-0.9,0.9-1.5,0.9h-0.1l-9.9-0.9c-0.2,0-0.4-0.1-0.5-0.3c-0.1-0.2-0.2-0.4-0.1-0.6l0.5-3.8
			c0.2-1.5-0.7-2.9-2.1-3.3c-1.4-0.4-2.7-0.9-4-1.5c-0.8-0.3-1.6-0.5-2.4-0.4c-0.5,0-1.1,0.1-1.6,0.2l-7.8,2.6
			c-0.2,0.1-0.4,0.1-0.6,0.1c-0.5,0-1.1-0.2-1.5-0.5l-5-4.2c-0.1,0-0.1-0.1-0.1-0.2c0.1-0.1,0.1-0.1,0.2-0.2l6.4-3.3
			c1.3-0.7,1.9-2.3,1.2-3.6c-0.2-0.5-0.4-1.1-0.6-1.6c-0.4-1.4-1.5-2.4-2.9-2.7l-8.6-1.4c-0.2,0-0.3-0.1-0.4-0.2
			c-0.1-0.2-0.1-0.3,0-0.5l1.4-4.5c0.2-0.6,0.7-1,1.4-1l0,0l9.1,0.3h0.1c1.4-0.1,2.6-0.6,3.6-1.6c0.7-0.7,1.4-1.3,2.1-1.9
			c0.6-0.5,0.9-1.1,1-1.9c0-0.7-0.2-1.4-0.7-1.9l-3.6-3.9c-0.1,0-0.2-0.2-0.1-0.3c0-0.1,0.1-0.1,0.2-0.1l8-3.3
			c0.3-0.1,0.6-0.1,0.8-0.1c0.5,0,0.9,0.1,1.4,0.3l5.3,3.5c0.9,0.6,2,0.8,3.1,0.8c0.3,0,0.6,0,0.9-0.1c1.6-0.3,3.4-0.5,5.1-0.7
			c1.4-0.2,2.7-1,3.4-2.3l2-3.9C195,400.7,195.5,400.4,196.2,400.3L196.2,400.3 M192.7,437.4c4,0,7.9-0.7,11.6-2.2
			c5-2.1,8.2-5.4,8.8-9.1c0.4-2.9-0.8-5.8-3.6-8.1c-3.6-3.1-9.4-4.8-15.8-4.8c-4,0-7.9,0.7-11.6,2.2c-5,2.1-8.2,5.4-8.8,9.1
			c-0.4,2.9,0.8,5.8,3.6,8.1C180.5,435.7,186.3,437.4,192.7,437.4 M196.2,399.4c-1,0-1.9,0.6-2.4,1.5l-2,3.9
			c-0.6,0.9-1.5,1.6-2.6,1.7c-1.7,0.1-3.5,0.4-5.2,0.7c-0.2,0-0.5,0.1-0.7,0.1c-0.9,0-1.8-0.2-2.5-0.7l-5.4-3.6
			c-0.6-0.3-1.2-0.5-1.9-0.5c-0.4,0-0.8,0.1-1.2,0.2l-8,3.3c-0.6,0.2-1,0.8-0.8,1.4c0.1,0.2,0.2,0.4,0.4,0.6l3.6,3.9
			c0.6,0.6,0.5,1.6-0.1,2.2c0,0-0.1,0.1-0.2,0.1c-0.8,0.6-1.5,1.3-2.2,2c-0.8,0.8-1.8,1.2-2.9,1.3H162l-9.1-0.3h-0.1
			c-1,0-1.9,0.7-2.3,1.7l-1.4,4.5c-0.3,0.8,0.1,1.6,0.9,1.9c0.1,0,0.2,0.1,0.3,0.1l8.6,1.4c1,0.2,1.8,1,2.1,2
			c0.2,0.6,0.4,1.2,0.6,1.7c0.5,0.9,0.2,1.9-0.7,2.4l-6.4,3.3c-0.6,0.2-0.9,0.8-0.7,1.4c0.1,0.3,0.3,0.5,0.5,0.6l5,4.2
			c0.6,0.5,1.4,0.7,2.1,0.7c0.3,0,0.6,0,0.9-0.1l7.8-2.5c0.4-0.1,0.9-0.2,1.3-0.2c0.7,0,1.4,0.1,2,0.4c1.3,0.6,2.7,1.1,4.1,1.5
			c1,0.3,1.6,1.3,1.5,2.3l-0.5,3.8c-0.1,0.9,0.5,1.8,1.4,1.9c0,0,0.1,0,0.1,0l9.9,0.9h0.2c1,0,1.9-0.6,2.4-1.5l2-3.9
			c0.6-0.9,1.5-1.6,2.6-1.7c1.7-0.2,3.5-0.4,5.2-0.7c0.2,0,0.5-0.1,0.7-0.1c0.9,0,1.8,0.2,2.5,0.7l5.3,3.5c0.6,0.3,1.2,0.5,1.9,0.5
			c0.4,0,0.8-0.1,1.2-0.2l8-3.3c0.6-0.2,1-0.8,0.8-1.4c-0.1-0.2-0.2-0.4-0.4-0.6l-3.6-3.9c-0.6-0.6-0.6-1.6,0.1-2.2
			c0.1-0.1,0.1-0.1,0.2-0.1c0.8-0.6,1.5-1.3,2.2-2c0.8-0.8,1.8-1.2,2.9-1.3h0.1l9.1,0.3h0.1c1,0,1.9-0.7,2.3-1.7l1.4-4.5
			c0.3-0.8-0.1-1.6-0.9-1.9c-0.1,0-0.2-0.1-0.3-0.1l-8.6-1.4c-1-0.2-1.8-1-2.1-2c-0.2-0.6-0.4-1.2-0.6-1.7c-0.4-0.9-0.1-1.9,0.8-2.4
			l6.4-3.3c0.6-0.2,0.9-0.8,0.7-1.4c-0.1-0.3-0.3-0.5-0.5-0.6l-5-4.2c-0.6-0.5-1.4-0.7-2.2-0.7c-0.3,0-0.6,0-0.9,0.1l-7.8,2.5
			c-0.4,0.1-0.9,0.2-1.3,0.2c-0.7,0-1.4-0.1-2-0.4c-1.3-0.6-2.7-1.1-4.1-1.5c-1-0.3-1.6-1.3-1.5-2.3l0.5-3.8
			c0.1-0.9-0.5-1.8-1.4-1.9c0,0-0.1,0-0.1,0l-9.9-0.9L196.2,399.4z M192.7,436.5c-5.9,0-11.6-1.6-15.2-4.6c-5.9-5-3.7-11.9,5-15.5
			c3.6-1.4,7.4-2.1,11.2-2.1c5.9,0,11.6,1.6,15.2,4.6c5.9,5,3.7,12-5,15.5C200.4,435.8,196.5,436.5,192.7,436.5L192.7,436.5z"/>
	</g>
	<g id="freepik--gear--inject-2" class="st3">
		<path class="st4" d="M472.6,326.3c0,0.4-0.3,0.8-0.7,1l-6.2,3.2c-0.8,0.4-1.1,1.5-0.7,2.3c0.2,0.5,0.4,1.1,0.6,1.7
			c0.3,1,1,1.7,2,2l1.5,0.2l2.6-1.4c0.4-0.2,0.7-0.6,0.7-1l0,0L472.6,326.3z M424.4,329.2c-7.2,3-9.8,8.4-6.7,12.9
			c1.7-2.2,4-3.9,6.6-4.9c8.3-3.5,19.7-2.4,25.4,2.4c0.7,0.6,1.4,1.3,1.9,2c2.2-3.2,1.8-7-1.8-10
			C444.1,326.8,432.8,325.7,424.4,329.2z M477.1,339.2c0,0.2,0,0.3-0.1,0.5l-1.4,4.3c-0.3,0.9-1.2,1.6-2.2,1.6l-8.7-0.3
			c-0.5,0-0.9,0.1-1.4,0.3c-0.6,0.2-1.1,0.6-1.5,1c-0.7,0.7-1.4,1.3-2.1,1.9c-0.7,0.5-0.8,1.4-0.4,2.1c0,0.1,0.1,0.1,0.1,0.2l3,3.2
			c0.2-0.2,0.5-0.3,0.8-0.4l0,0c0.4-0.2,0.9-0.3,1.4-0.3l8.8,0.2c1,0,1.9-0.7,2.2-1.6l1.4-4.3c0.1-0.2,0.1-0.3,0.1-0.5l0,0
			L477.1,339.2z M406.1,328.5L406.1,328.5c0,0.3,0.1,0.6,0.4,0.9l0.4,0.5c0.3-0.2,0.5-0.3,0.7-0.6c0.7-0.7,1.4-1.3,2.1-1.9
			c0.7-0.5,0.9-1.4,0.4-2.1c-0.1-0.1-0.1-0.2-0.2-0.2l-3.4-3.7c-0.2-0.2-0.3-0.4-0.4-0.7L406.1,328.5z M463.3,355.3
			c0,0.5-0.4,0.9-0.8,1l-7.7,3.2c-0.6,0.2-1.3,0.3-2,0.1c-0.4-0.1-0.7-0.2-1-0.4l-5.1-3.4c-0.9-0.5-2-0.8-3.1-0.6
			c-1.6,0.3-3.3,0.5-5,0.7c-0.6,0.1-1.2,0.3-1.7,0.7c-0.3,0.3-0.6,0.6-0.8,1l-2,3.8c-0.3,0.6-0.8,1-1.4,1.2
			c-0.3,0.1-0.7,0.2-1.1,0.2l-9.5-0.9c-0.9-0.1-1.5-0.9-1.4-1.8c0,0,0,0,0,0l0.5-3.7c0.1-1-0.5-1.9-1.4-2.2c-1.4-0.4-2.7-0.9-4-1.4
			c-1-0.4-2.1-0.4-3.2-0.2h-0.1l-7.4,2.5c-0.6,0.2-1.3,0.2-1.9,0c-0.4-0.1-0.8-0.3-1.1-0.5l-4.8-4.1c-0.3-0.2-0.4-0.5-0.5-0.8
			l-0.1,8c0,0.3,0.2,0.7,0.5,0.9l4.8,4.1c0.6,0.4,1.3,0.7,2,0.7c0.1,0,0.3,0,0.4,0h0.1c0.1,0,0.3,0,0.4-0.1l7.4-2.4h0.1
			c1-0.3,2.2-0.2,3.2,0.2c1.3,0.6,2.6,1,4,1.4c0.4,0.1,0.7,0.4,1,0.7l-0.1,5.4c0,0.8,0.6,1.5,1.5,1.6l9.5,0.9c0.4,0,0.7,0,1.1-0.2
			c0.2-0.1,0.4-0.2,0.6-0.4c0.1-0.1,0.2-0.1,0.3-0.2l0,0c0.1-0.1,0.2-0.2,0.2-0.2c0.1-0.1,0.1-0.2,0.2-0.3l0-0.1l2-3.8
			c0.1-0.1,0.1-0.2,0.2-0.3c0.1-0.1,0.1-0.2,0.2-0.2c0.1-0.2,0.3-0.3,0.4-0.4c0.5-0.4,1.1-0.6,1.7-0.7c1.7-0.1,3.3-0.4,5-0.7
			c1.1-0.2,2.1,0,3.1,0.6l5.1,3.4c0.3,0.2,0.6,0.3,1,0.4l0,0h0.3c0.4,0.1,0.8,0.1,1.2,0c0.1,0,0.2,0,0.3,0c0.1,0,0.2-0.1,0.3-0.1
			l7.7-3.2c0.3-0.1,0.5-0.3,0.7-0.5c0.1-0.1,0.1-0.3,0.1-0.5L463.3,355.3z M393.6,338c-0.7-0.1-1.2-0.7-1.2-1.4l-0.1,8l0,0
			c0,0.7,0.5,1.3,1.2,1.4l6.8,1.1l3.5-1.8c0.8-0.4,1.1-1.5,0.7-2.3c-0.3-0.5-0.5-1.1-0.6-1.7c-0.3-1-1-1.7-2-2L393.6,338z"/>
		<path class="st5" d="M472.6,326.3c0,0.4-0.3,0.8-0.7,1l-6.2,3.2c-0.8,0.4-1.1,1.5-0.7,2.3c0.2,0.5,0.4,1.1,0.6,1.7
			c0.3,1,1,1.7,2,2l1.5,0.2l2.6-1.4c0.4-0.2,0.7-0.6,0.7-1l0,0L472.6,326.3z M424.4,329.2c-7.2,3-9.8,8.4-6.7,12.9
			c1.7-2.2,4-3.9,6.6-4.9c8.3-3.5,19.7-2.4,25.4,2.4c0.7,0.6,1.4,1.3,1.9,2c2.2-3.2,1.8-7-1.8-10
			C444.1,326.8,432.8,325.7,424.4,329.2z M477.1,339.2c0,0.2,0,0.3-0.1,0.5l-1.4,4.3c-0.3,0.9-1.2,1.6-2.2,1.6l-8.7-0.3
			c-0.5,0-0.9,0.1-1.4,0.3c-0.6,0.2-1.1,0.6-1.5,1c-0.7,0.7-1.4,1.3-2.1,1.9c-0.7,0.5-0.8,1.4-0.4,2.1c0,0.1,0.1,0.1,0.1,0.2l3,3.2
			c0.2-0.2,0.5-0.3,0.8-0.4l0,0c0.4-0.2,0.9-0.3,1.4-0.3l8.8,0.2c1,0,1.9-0.7,2.2-1.6l1.4-4.3c0.1-0.2,0.1-0.3,0.1-0.5l0,0
			L477.1,339.2z M406.1,328.5L406.1,328.5c0,0.3,0.1,0.6,0.4,0.9l0.4,0.5c0.3-0.2,0.5-0.3,0.7-0.6c0.7-0.7,1.4-1.3,2.1-1.9
			c0.7-0.5,0.9-1.4,0.4-2.1c-0.1-0.1-0.1-0.2-0.2-0.2l-3.4-3.7c-0.2-0.2-0.3-0.4-0.4-0.7L406.1,328.5z M463.3,355.3
			c0,0.5-0.4,0.9-0.8,1l-7.7,3.2c-0.6,0.2-1.3,0.3-2,0.1c-0.4-0.1-0.7-0.2-1-0.4l-5.1-3.4c-0.9-0.5-2-0.8-3.1-0.6
			c-1.6,0.3-3.3,0.5-5,0.7c-0.6,0.1-1.2,0.3-1.7,0.7c-0.3,0.3-0.6,0.6-0.8,1l-2,3.8c-0.3,0.6-0.8,1-1.4,1.2
			c-0.3,0.1-0.7,0.2-1.1,0.2l-9.5-0.9c-0.9-0.1-1.5-0.9-1.4-1.8c0,0,0,0,0,0l0.5-3.7c0.1-1-0.5-1.9-1.4-2.2c-1.4-0.4-2.7-0.9-4-1.4
			c-1-0.4-2.1-0.4-3.2-0.2h-0.1l-7.4,2.5c-0.6,0.2-1.3,0.2-1.9,0c-0.4-0.1-0.8-0.3-1.1-0.5l-4.8-4.1c-0.3-0.2-0.4-0.5-0.5-0.8
			l-0.1,8c0,0.3,0.2,0.7,0.5,0.9l4.8,4.1c0.6,0.4,1.3,0.7,2,0.7c0.1,0,0.3,0,0.4,0h0.1c0.1,0,0.3,0,0.4-0.1l7.4-2.4h0.1
			c1-0.3,2.2-0.2,3.2,0.2c1.3,0.6,2.6,1,4,1.4c0.4,0.1,0.7,0.4,1,0.7l-0.1,5.4c0,0.8,0.6,1.5,1.5,1.6l9.5,0.9c0.4,0,0.7,0,1.1-0.2
			c0.2-0.1,0.4-0.2,0.6-0.4c0.1-0.1,0.2-0.1,0.3-0.2l0,0c0.1-0.1,0.2-0.2,0.2-0.2c0.1-0.1,0.1-0.2,0.2-0.3l0-0.1l2-3.8
			c0.1-0.1,0.1-0.2,0.2-0.3c0.1-0.1,0.1-0.2,0.2-0.2c0.1-0.2,0.3-0.3,0.4-0.4c0.5-0.4,1.1-0.6,1.7-0.7c1.7-0.1,3.3-0.4,5-0.7
			c1.1-0.2,2.1,0,3.1,0.6l5.1,3.4c0.3,0.2,0.6,0.3,1,0.4l0,0h0.3c0.4,0.1,0.8,0.1,1.2,0c0.1,0,0.2,0,0.3,0c0.1,0,0.2-0.1,0.3-0.1
			l7.7-3.2c0.3-0.1,0.5-0.3,0.7-0.5c0.1-0.1,0.1-0.3,0.1-0.5L463.3,355.3z M393.6,338c-0.7-0.1-1.2-0.7-1.2-1.4l-0.1,8l0,0
			c0,0.7,0.5,1.3,1.2,1.4l6.8,1.1l3.5-1.8c0.8-0.4,1.1-1.5,0.7-2.3c-0.3-0.5-0.5-1.1-0.6-1.7c-0.3-1-1-1.7-2-2L393.6,338z"/>
		<path class="st6" d="M412.6,352.5l-7.4,2.5c-0.6,0.2-1.3,0.2-1.9,0l-0.1,8c0.3,0.1,0.7,0.1,1,0.1c0.1,0,0.3,0,0.4,0h0.1
			c0.1,0,0.3,0,0.4-0.1l7.4-2.4L412.6,352.5z"/>
		<path class="st6" d="M437,356.6c-0.3,0.3-0.6,0.6-0.8,1l-2,3.8c-0.3,0.6-0.8,1-1.4,1.2l-0.1,8c0.2-0.1,0.4-0.2,0.6-0.4
			c0.1-0.1,0.2-0.1,0.3-0.2l0,0c0.1-0.1,0.2-0.2,0.2-0.2c0.1-0.1,0.1-0.2,0.2-0.3l0-0.1l2-3.8c0.1-0.1,0.1-0.2,0.2-0.3
			c0.1-0.1,0.1-0.2,0.2-0.2c0.1-0.1,0.3-0.3,0.4-0.4l0,0L437,356.6z"/>
		<path class="st6" d="M472.6,326.3c0,0.4-0.3,0.8-0.7,1l-6.2,3.2c-0.8,0.4-1.1,1.5-0.7,2.3c0.2,0.5,0.4,1.1,0.6,1.7
			c0.3,1,1,1.7,2,1.9l1.5,0.2l2.6-1.4c0.4-0.2,0.7-0.6,0.7-1l0,0L472.6,326.3z"/>
		<path class="st6" d="M477.1,339.2c0,0.2,0,0.3-0.1,0.5l-1.4,4.3c-0.3,0.9-1.2,1.6-2.2,1.6l-8.7-0.3c-0.5,0-0.9,0.1-1.4,0.3l-0.1,8
			c0.4-0.2,0.9-0.3,1.4-0.3l8.8,0.2c1,0,1.9-0.7,2.2-1.6l1.4-4.3c0.1-0.2,0.1-0.3,0.1-0.5l0,0L477.1,339.2z"/>
		<path class="st6" d="M463.3,355.3c0,0.5-0.4,0.9-0.8,1l-7.7,3.2c-0.6,0.2-1.3,0.3-2,0.1l-0.1,8h0.3c0.4,0.1,0.8,0.1,1.2,0
			c0.1,0,0.2,0,0.3,0c0.1,0,0.2-0.1,0.3-0.1l7.7-3.2c0.3-0.1,0.5-0.3,0.7-0.5c0.1-0.1,0.1-0.3,0.1-0.5L463.3,355.3z"/>
		<path class="st7" d="M464.3,320.8l-7.5,2.5c-1,0.3-2.2,0.2-3.2-0.2c-1.3-0.6-2.6-1-4-1.4c-0.9-0.3-1.5-1.2-1.4-2.2l0.5-3.7
			c0.1-0.9-0.5-1.7-1.4-1.9c0,0-0.1,0-0.1,0l-9.5-0.9c-1,0-2,0.5-2.5,1.4l-2,3.8c-0.5,0.9-1.5,1.5-2.5,1.7c-1.7,0.1-3.3,0.4-5,0.7
			c-1.1,0.1-2.1-0.1-3.1-0.6l-5.1-3.4c-0.9-0.5-2-0.6-3-0.3l-7.7,3.2c-0.6,0.2-0.9,0.8-0.8,1.4c0.1,0.2,0.2,0.4,0.3,0.5l3.4,3.7
			c0.6,0.6,0.5,1.6-0.1,2.1c-0.1,0-0.1,0.1-0.2,0.1c-0.7,0.6-1.5,1.2-2.1,1.9c-0.8,0.8-1.8,1.2-2.8,1.2l-8.7-0.2
			c-1,0-1.9,0.7-2.2,1.6l-1.4,4.3c-0.3,0.7,0.1,1.6,0.8,1.9c0.1,0,0.2,0.1,0.3,0.1l8.3,1.3c1,0.2,1.7,1,2,2c0.2,0.6,0.4,1.1,0.6,1.7
			c0.4,0.8,0.1,1.8-0.7,2.3l-6.2,3.2c-0.6,0.2-0.8,0.8-0.6,1.4c0.1,0.2,0.2,0.4,0.4,0.5l4.8,4.1c0.8,0.6,1.9,0.8,2.9,0.6l7.5-2.5
			c1-0.3,2.2-0.2,3.2,0.2c1.3,0.6,2.6,1,4,1.4c0.9,0.3,1.5,1.2,1.4,2.2l-0.5,3.7c-0.1,0.9,0.5,1.7,1.4,1.9c0,0,0.1,0,0.1,0l9.5,0.9
			c1,0,2-0.5,2.5-1.4l2-3.8c0.5-0.9,1.4-1.5,2.5-1.7c1.7-0.1,3.3-0.4,5-0.7c1.1-0.2,2.1,0.1,3.1,0.6l5.1,3.4c0.9,0.5,2,0.6,3,0.3
			l7.7-3.2c0.6-0.2,0.9-0.8,0.8-1.4c-0.1-0.2-0.2-0.4-0.3-0.5l-3.4-3.7c-0.6-0.6-0.5-1.6,0.1-2.1c0.1,0,0.1-0.1,0.2-0.1
			c0.7-0.6,1.5-1.2,2.1-1.9c0.8-0.8,1.8-1.2,2.9-1.3l8.7,0.3c1,0,1.9-0.7,2.2-1.6l1.4-4.3c0.3-0.7-0.1-1.6-0.8-1.9
			c-0.1,0-0.2-0.1-0.3-0.1l-8.3-1.3c-1-0.2-1.7-1-2-2c-0.2-0.6-0.4-1.1-0.6-1.7c-0.4-0.8-0.1-1.8,0.7-2.3l6.2-3.2
			c0.6-0.2,0.8-0.8,0.6-1.4c-0.1-0.2-0.2-0.4-0.4-0.5l-4.8-4.1C466.5,320.7,465.4,320.5,464.3,320.8z M449.8,331.6
			c5.7,4.8,3.6,11.5-4.8,14.9s-19.7,2.4-25.4-2.4s-3.6-11.5,4.8-14.9S444.1,326.8,449.8,331.6L449.8,331.6z"/>
		<path class="st8" d="M437.6,313.9L437.6,313.9l9.6,0.9c0.2,0,0.4,0.1,0.5,0.2c0.1,0.2,0.2,0.4,0.1,0.6l-0.5,3.7
			c-0.2,1.4,0.7,2.8,2.1,3.2c1.3,0.4,2.6,0.9,3.9,1.4c0.7,0.3,1.5,0.4,2.3,0.4c0.5,0,1-0.1,1.5-0.2l7.5-2.5c0.2-0.1,0.4-0.1,0.5-0.1
			c0.5,0,1,0.2,1.5,0.5l4.8,4.1c0.1,0,0.1,0.1,0.1,0.2c0,0-0.1,0.1-0.2,0.2l-6.2,3.2c-1.3,0.7-1.8,2.2-1.1,3.5
			c0.2,0.5,0.4,1,0.6,1.5c0.4,1.3,1.4,2.3,2.8,2.6l8.3,1.4c0.2,0,0.3,0.1,0.4,0.2c0.1,0.2,0.1,0.3,0,0.5l-1.4,4.3
			c-0.2,0.5-0.7,0.9-1.3,1l0,0l-8.7-0.2h-0.1c-1.3,0.1-2.5,0.6-3.5,1.5c-0.6,0.7-1.3,1.3-2,1.8c-0.6,0.4-0.9,1.1-1,1.8
			c0,0.7,0.2,1.3,0.6,1.8l3.4,3.7c0.1,0.1,0.1,0.2,0.1,0.2s-0.1,0.1-0.2,0.2l-7.7,3.2c-0.3,0.1-0.5,0.1-0.8,0.1
			c-0.5,0-0.9-0.1-1.3-0.3l-5.1-3.4c-0.9-0.5-1.9-0.8-3-0.8c-0.3,0-0.5,0-0.8,0.1c-1.6,0.3-3.2,0.5-4.9,0.7c-1.4,0.2-2.6,1-3.2,2.2
			l-1.9,3.8c-0.3,0.5-0.9,0.8-1.5,0.9h-0.1l-9.5-0.9c-0.2,0-0.4-0.1-0.5-0.3c-0.1-0.2-0.2-0.4-0.1-0.6l0.5-3.7
			c0.2-1.4-0.7-2.8-2.1-3.2c-1.3-0.4-2.6-0.9-3.9-1.4c-0.7-0.3-1.5-0.4-2.3-0.4c-0.5,0-1,0.1-1.5,0.2l-7.5,2.5
			c-0.2,0.1-0.4,0.1-0.6,0.1c-0.5,0-1-0.2-1.5-0.5l-4.9-4.1c-0.1,0-0.1-0.1-0.1-0.2c0-0.1,0.1-0.1,0.2-0.2l6.2-3.2
			c1.3-0.7,1.8-2.2,1.1-3.5c-0.2-0.5-0.4-1-0.6-1.5c-0.4-1.3-1.4-2.3-2.8-2.6l-8.3-1.4c-0.2,0-0.3-0.1-0.4-0.2
			c-0.1-0.2-0.1-0.3,0-0.5l1.4-4.3c0.2-0.5,0.7-0.9,1.3-1l0,0l8.7,0.2h0.1c1.3-0.1,2.5-0.6,3.5-1.5c0.6-0.7,1.3-1.3,2-1.8
			c0.6-0.4,0.9-1.1,1-1.8c0-0.7-0.2-1.3-0.6-1.8l-3.4-3.7c-0.1-0.1-0.1-0.2-0.1-0.2c0.1-0.1,0.1-0.1,0.2-0.2l7.7-3.2
			c0.3-0.1,0.5-0.1,0.8-0.1c0.5,0,0.9,0.1,1.3,0.3l5.1,3.4c0.9,0.5,1.9,0.8,2.9,0.8c0.3,0,0.6,0,0.8-0.1c1.6-0.3,3.2-0.5,4.9-0.7
			c1.4-0.2,2.6-1,3.2-2.2l2-3.8C436.4,314.3,437,313.9,437.6,313.9L437.6,313.9 M434.3,349.5c3.8,0,7.6-0.7,11.1-2.1
			c4.8-2,7.9-5.2,8.5-8.7c0.4-2.8-0.8-5.6-3.4-7.8c-3.5-3-9.1-4.6-15.2-4.6c-3.8,0-7.6,0.7-11.1,2.1c-4.8,2-7.9,5.2-8.5,8.7
			c-0.4,2.8,0.8,5.6,3.4,7.8C422.6,347.8,428.1,349.5,434.3,349.5 M437.6,313c-1,0-1.8,0.6-2.3,1.4l-2,3.8c-0.5,0.9-1.5,1.5-2.5,1.7
			c-1.7,0.1-3.3,0.4-5,0.7c-0.2,0-0.4,0-0.6,0c-0.9,0-1.7-0.2-2.4-0.6l-5.1-3.4c-0.6-0.3-1.2-0.5-1.8-0.5c-0.4,0-0.8,0.1-1.2,0.2
			l-7.7,3.2c-0.6,0.2-0.9,0.8-0.8,1.4c0.1,0.2,0.2,0.4,0.3,0.5l3.4,3.7c0.6,0.6,0.5,1.6-0.1,2.1c-0.1,0-0.1,0.1-0.2,0.1
			c-0.7,0.6-1.5,1.2-2.1,1.9c-0.7,0.7-1.7,1.2-2.8,1.3h-0.1l-8.7-0.2h0c-1,0-1.8,0.7-2.2,1.6l-1.4,4.3c-0.3,0.7,0.1,1.6,0.8,1.9
			c0.1,0,0.2,0.1,0.3,0.1l8.3,1.3c1,0.2,1.7,1,2,2c0.2,0.6,0.4,1.1,0.6,1.7c0.4,0.8,0.1,1.8-0.7,2.3l-6.2,3.2
			c-0.6,0.2-0.8,0.8-0.6,1.4c0.1,0.2,0.2,0.4,0.4,0.5l4.8,4.1c0.6,0.5,1.3,0.7,2.1,0.7c0.3,0,0.6,0,0.9-0.1l7.5-2.5
			c0.4-0.1,0.8-0.2,1.2-0.2c0.7,0,1.3,0.1,1.9,0.4c1.3,0.6,2.6,1,4,1.4c0.9,0.3,1.5,1.2,1.4,2.2l-0.5,3.7c-0.1,0.9,0.5,1.7,1.4,1.9
			c0,0,0.1,0,0.1,0l9.5,0.9h0.2c1,0,1.8-0.6,2.3-1.4l2-3.8c0.5-0.9,1.4-1.5,2.5-1.7c1.7-0.1,3.3-0.4,5-0.7c0.2,0,0.4,0,0.6,0
			c0.9,0,1.7,0.2,2.4,0.6l5.1,3.4c0.6,0.3,1.2,0.5,1.8,0.5c0.4,0,0.8-0.1,1.2-0.2l7.7-3.2c0.6-0.2,0.9-0.8,0.8-1.4
			c-0.1-0.2-0.2-0.4-0.3-0.5l-3.4-3.7c-0.6-0.6-0.5-1.6,0.1-2.1c0.1,0,0.1-0.1,0.2-0.1c0.7-0.6,1.5-1.2,2.1-1.9
			c0.7-0.7,1.7-1.2,2.8-1.3h0.1l8.7,0.3h0c1,0,1.8-0.7,2.2-1.6l1.4-4.3c0.3-0.7-0.1-1.6-0.8-1.9c-0.1,0-0.2-0.1-0.3-0.1l-8.3-1.3
			c-1-0.2-1.7-1-2-2c-0.2-0.6-0.4-1.1-0.6-1.7c-0.4-0.8-0.1-1.8,0.7-2.3l6.2-3.2c0.6-0.2,0.8-0.8,0.6-1.4c-0.1-0.2-0.2-0.4-0.4-0.5
			l-4.8-4.1c-0.6-0.5-1.3-0.7-2.1-0.7c-0.3,0-0.6,0-0.9,0.1l-7.5,2.5c-0.4,0.1-0.8,0.2-1.3,0.2c-0.7,0-1.3-0.1-1.9-0.4
			c-1.3-0.6-2.6-1-4-1.4c-0.9-0.3-1.5-1.2-1.4-2.2l0.5-3.7c0.1-0.9-0.5-1.7-1.4-1.9c0,0-0.1,0-0.1,0l-9.5-0.9L437.6,313z
			 M434.3,348.6c-5.7,0-11.2-1.5-14.6-4.4c-5.7-4.8-3.6-11.5,4.8-14.9c3.4-1.4,7.1-2,10.8-2c5.7,0,11.2,1.5,14.6,4.4
			c5.7,4.8,3.6,11.5-4.8,14.9C441.6,348,438,348.6,434.3,348.6z"/>
	</g>
	<g id="freepik--gear--inject-2_00000178172191649880462470000000861110934505744001_" class="st3">
		<path class="st4" d="M299.3,434c0,0.3-0.2,0.6-0.5,0.7l-4.3,2.2c-0.6,0.3-0.8,1-0.5,1.6c0.2,0.4,0.3,0.8,0.4,1.2
			c0.2,0.7,0.7,1.2,1.4,1.4l1.1,0.2l1.9-1c0.3-0.1,0.5-0.4,0.5-0.7l0,0L299.3,434z M265.6,436c-5,2.1-6.8,5.9-4.7,9
			c1.2-1.6,2.8-2.7,4.6-3.4c5.8-2.4,13.8-1.7,17.8,1.7c0.5,0.4,1,0.9,1.4,1.4c1.6-2.3,1.2-4.9-1.3-7
			C279.4,434.3,271.5,433.6,265.6,436z M302.5,443c0,0.1,0,0.2-0.1,0.3l-1,3c-0.2,0.7-0.8,1.1-1.5,1.1l-6.1-0.2
			c-0.3,0-0.7,0.1-1,0.2c-0.4,0.2-0.7,0.4-1,0.7c-0.5,0.5-1,0.9-1.5,1.4c-0.5,0.3-0.6,0.9-0.3,1.4c0,0.1,0.1,0.1,0.2,0.2l2.1,2.3
			c0.2-0.1,0.3-0.2,0.5-0.3l0,0c0.3-0.1,0.7-0.2,1-0.2l6.1,0.2c0.7,0,1.3-0.5,1.6-1.1l1-3c0-0.1,0.1-0.2,0.1-0.4l0,0L302.5,443z
			 M252.8,435.5L252.8,435.5c0,0.2,0.1,0.4,0.2,0.6l0.3,0.3c0.2-0.1,0.4-0.2,0.5-0.4c0.5-0.5,1-0.9,1.5-1.3c0.5-0.3,0.6-1,0.3-1.5
			c0,0-0.1-0.1-0.1-0.1l-2.4-2.6c-0.1-0.1-0.2-0.3-0.2-0.5L252.8,435.5z M292.8,454.3c0,0.3-0.2,0.6-0.6,0.7l-5.4,2.2
			c-0.4,0.2-0.9,0.2-1.4,0.1c-0.2,0-0.5-0.1-0.7-0.3l-3.6-2.4c-0.6-0.4-1.4-0.5-2.1-0.4c-1.1,0.2-2.3,0.4-3.5,0.5
			c-0.4,0.1-0.8,0.2-1.2,0.5c-0.2,0.2-0.4,0.4-0.6,0.7l-1.4,2.7c-0.2,0.4-0.6,0.7-1,0.9c-0.2,0.1-0.5,0.1-0.8,0.1l-6.7-0.6
			c-0.6-0.1-1.1-0.7-1-1.3c0,0,0,0,0,0l0.3-2.6c0.1-0.7-0.3-1.3-1-1.5c-0.9-0.3-1.9-0.6-2.8-1c-0.7-0.3-1.5-0.3-2.2-0.1h-0.1
			l-5.2,1.6c-0.4,0.1-0.9,0.1-1.3,0c-0.3-0.1-0.5-0.2-0.8-0.4l-3.4-2.8c-0.2-0.1-0.3-0.4-0.3-0.6l-0.1,5.6c0,0.2,0.1,0.5,0.3,0.6
			l3.4,2.9c0.4,0.3,0.9,0.5,1.4,0.5c0.1,0,0.2,0,0.3,0h0.1c0.1,0,0.2,0,0.3-0.1l5.2-1.7h0.1c0.7-0.2,1.5-0.2,2.2,0.1
			c0.9,0.4,1.8,0.7,2.8,1c0.3,0.1,0.5,0.3,0.7,0.5l0,3.8c0,0.6,0.4,1.1,1,1.1l6.7,0.6c0.3,0,0.5,0,0.8-0.1c0.2-0.1,0.3-0.1,0.4-0.2
			c0.1,0,0.1-0.1,0.2-0.2l0,0c0.1,0,0.1-0.1,0.1-0.2c0.1-0.1,0.1-0.1,0.1-0.2v-0.1l1.4-2.6c0-0.1,0.1-0.2,0.1-0.2
			c0-0.1,0.1-0.1,0.1-0.1c0.1-0.1,0.2-0.2,0.3-0.3c0.3-0.3,0.7-0.4,1.2-0.5c1.2-0.1,2.3-0.3,3.5-0.5c0.7-0.1,1.5,0,2.2,0.4l3.6,2.4
			c0.2,0.1,0.4,0.2,0.7,0.2l0,0h0.2c0.3,0,0.5,0,0.8,0c0.1,0,0.1,0,0.2,0c0.1,0,0.2,0,0.2-0.1l5.4-2.2c0.2-0.1,0.4-0.2,0.5-0.4
			c0.1-0.1,0.1-0.2,0.1-0.3L292.8,454.3z M244.1,442.2c-0.5-0.1-0.9-0.5-0.9-1l-0.1,5.6l0,0c0,0.5,0.4,0.9,0.9,1l4.7,0.8l2.5-1.3
			c0.6-0.3,0.8-1,0.5-1.6c-0.2-0.4-0.3-0.8-0.4-1.2c-0.2-0.7-0.7-1.2-1.4-1.4L244.1,442.2z"/>
		<path class="st5" d="M299.3,434c0,0.3-0.2,0.6-0.5,0.7l-4.3,2.2c-0.6,0.3-0.8,1-0.5,1.6c0.2,0.4,0.3,0.8,0.4,1.2
			c0.2,0.7,0.7,1.2,1.4,1.4l1.1,0.2l1.9-1c0.3-0.1,0.5-0.4,0.5-0.7l0,0L299.3,434z M265.6,436c-5,2.1-6.8,5.9-4.7,9
			c1.2-1.6,2.8-2.7,4.6-3.4c5.8-2.4,13.8-1.7,17.8,1.7c0.5,0.4,1,0.9,1.4,1.4c1.6-2.3,1.2-4.9-1.3-7
			C279.4,434.3,271.5,433.6,265.6,436z M302.5,443c0,0.1,0,0.2-0.1,0.3l-1,3c-0.2,0.7-0.8,1.1-1.5,1.1l-6.1-0.2
			c-0.3,0-0.7,0.1-1,0.2c-0.4,0.2-0.7,0.4-1,0.7c-0.5,0.5-1,0.9-1.5,1.4c-0.5,0.3-0.6,0.9-0.3,1.4c0,0.1,0.1,0.1,0.2,0.2l2.1,2.3
			c0.2-0.1,0.3-0.2,0.5-0.3l0,0c0.3-0.1,0.7-0.2,1-0.2l6.1,0.2c0.7,0,1.3-0.5,1.6-1.1l1-3c0-0.1,0.1-0.2,0.1-0.4l0,0L302.5,443z
			 M252.8,435.5L252.8,435.5c0,0.2,0.1,0.4,0.2,0.6l0.3,0.3c0.2-0.1,0.4-0.2,0.5-0.4c0.5-0.5,1-0.9,1.5-1.3c0.5-0.3,0.6-1,0.3-1.5
			c0,0-0.1-0.1-0.1-0.1l-2.4-2.6c-0.1-0.1-0.2-0.3-0.2-0.5L252.8,435.5z M292.8,454.3c0,0.3-0.2,0.6-0.6,0.7l-5.4,2.2
			c-0.4,0.2-0.9,0.2-1.4,0.1c-0.2,0-0.5-0.1-0.7-0.3l-3.6-2.4c-0.6-0.4-1.4-0.5-2.1-0.4c-1.1,0.2-2.3,0.4-3.5,0.5
			c-0.4,0.1-0.8,0.2-1.2,0.5c-0.2,0.2-0.4,0.4-0.6,0.7l-1.4,2.7c-0.2,0.4-0.6,0.7-1,0.9c-0.2,0.1-0.5,0.1-0.8,0.1l-6.7-0.6
			c-0.6-0.1-1.1-0.7-1-1.3c0,0,0,0,0,0l0.3-2.6c0.1-0.7-0.3-1.3-1-1.5c-0.9-0.3-1.9-0.6-2.8-1c-0.7-0.3-1.5-0.3-2.2-0.1h-0.1
			l-5.2,1.6c-0.4,0.1-0.9,0.1-1.3,0c-0.3-0.1-0.5-0.2-0.8-0.4l-3.4-2.8c-0.2-0.1-0.3-0.4-0.3-0.6l-0.1,5.6c0,0.2,0.1,0.5,0.3,0.6
			l3.4,2.9c0.4,0.3,0.9,0.5,1.4,0.5c0.1,0,0.2,0,0.3,0h0.1c0.1,0,0.2,0,0.3-0.1l5.2-1.7h0.1c0.7-0.2,1.5-0.2,2.2,0.1
			c0.9,0.4,1.8,0.7,2.8,1c0.3,0.1,0.5,0.3,0.7,0.5l0,3.8c0,0.6,0.4,1.1,1,1.1l6.7,0.6c0.3,0,0.5,0,0.8-0.1c0.2-0.1,0.3-0.1,0.4-0.2
			c0.1,0,0.1-0.1,0.2-0.2l0,0c0.1,0,0.1-0.1,0.1-0.2c0.1-0.1,0.1-0.1,0.1-0.2v-0.1l1.4-2.6c0-0.1,0.1-0.2,0.1-0.2
			c0-0.1,0.1-0.1,0.1-0.1c0.1-0.1,0.2-0.2,0.3-0.3c0.3-0.3,0.7-0.4,1.2-0.5c1.2-0.1,2.3-0.3,3.5-0.5c0.7-0.1,1.5,0,2.2,0.4l3.6,2.4
			c0.2,0.1,0.4,0.2,0.7,0.2l0,0h0.2c0.3,0,0.5,0,0.8,0c0.1,0,0.1,0,0.2,0c0.1,0,0.2,0,0.2-0.1l5.4-2.2c0.2-0.1,0.4-0.2,0.5-0.4
			c0.1-0.1,0.1-0.2,0.1-0.3L292.8,454.3z M244.1,442.2c-0.5-0.1-0.9-0.5-0.9-1l-0.1,5.6l0,0c0,0.5,0.4,0.9,0.9,1l4.7,0.8l2.5-1.3
			c0.6-0.3,0.8-1,0.5-1.6c-0.2-0.4-0.3-0.8-0.4-1.2c-0.2-0.7-0.7-1.2-1.4-1.4L244.1,442.2z"/>
		<path class="st6" d="M257.3,452.3l-5.2,1.7c-0.4,0.1-0.9,0.1-1.3,0l-0.1,5.6c0.2,0.1,0.4,0.1,0.7,0.1c0.1,0,0.2,0,0.3,0h0.1
			c0.1,0,0.2,0,0.3-0.1l5.2-1.7L257.3,452.3z"/>
		<path class="st6" d="M274.4,455.2c-0.2,0.2-0.4,0.4-0.6,0.7l-1.4,2.7c-0.2,0.4-0.6,0.7-1,0.9l-0.1,5.6c0.2-0.1,0.3-0.1,0.4-0.2
			c0.1,0,0.1-0.1,0.2-0.2l0,0c0.1,0,0.1-0.1,0.1-0.2c0.1-0.1,0.1-0.1,0.1-0.2v-0.1l1.4-2.6c0-0.1,0.1-0.2,0.1-0.2l0.1-0.1
			c0.1-0.1,0.2-0.2,0.3-0.3l0,0L274.4,455.2z"/>
		<path class="st6" d="M299.3,434c0,0.3-0.2,0.6-0.5,0.7l-4.3,2.2c-0.6,0.3-0.8,1-0.5,1.6c0.2,0.4,0.3,0.8,0.4,1.2
			c0.2,0.7,0.7,1.2,1.4,1.4l1.1,0.2l1.9-1c0.3-0.1,0.5-0.4,0.5-0.7l0,0L299.3,434z"/>
		<path class="st6" d="M302.5,443c0,0.1,0,0.2-0.1,0.3l-1,3c-0.2,0.7-0.8,1.1-1.5,1.1l-6.1-0.2c-0.3,0-0.7,0.1-1,0.2l-0.1,5.6
			c0.3-0.1,0.7-0.2,1-0.2l6.1,0.2c0.7,0,1.3-0.5,1.6-1.1l1-3c0-0.1,0.1-0.2,0.1-0.4l0,0L302.5,443z"/>
		<path class="st6" d="M292.8,454.2c0,0.3-0.2,0.6-0.6,0.7l-5.4,2.2c-0.4,0.2-0.9,0.2-1.4,0.1l-0.1,5.6h0.2c0.3,0,0.5,0,0.8,0
			c0.1,0,0.1,0,0.2,0c0.1,0,0.2,0,0.2-0.1l5.4-2.2c0.2-0.1,0.4-0.2,0.5-0.4c0.1-0.1,0.1-0.2,0.1-0.3L292.8,454.2z"/>
		<path class="st7" d="M293.6,430.1l-5.2,1.7c-0.7,0.2-1.5,0.1-2.2-0.1c-0.9-0.4-1.8-0.7-2.8-1c-0.6-0.2-1.1-0.8-1-1.5l0.3-2.6
			c0.1-0.6-0.3-1.2-1-1.3c0,0,0,0,0,0l-6.7-0.6c-0.7,0-1.4,0.4-1.7,1l-1.4,2.6c-0.4,0.6-1,1.1-1.8,1.2c-1.2,0.1-2.3,0.3-3.5,0.5
			c-0.7,0.1-1.5,0-2.2-0.4l-3.6-2.4c-0.6-0.4-1.4-0.4-2.1-0.2l-5.4,2.2c-0.4,0.1-0.7,0.5-0.5,0.9c0,0.2,0.1,0.3,0.2,0.4l2.4,2.6
			c0.4,0.4,0.4,1.1-0.1,1.5c0,0-0.1,0.1-0.1,0.1c-0.5,0.4-1,0.8-1.5,1.3c-0.5,0.5-1.2,0.8-2,0.9l-6.1-0.2c-0.7,0-1.3,0.5-1.6,1.1
			l-1,3c-0.2,0.5,0.1,1.1,0.6,1.3c0.1,0,0.1,0,0.2,0.1l5.8,0.9c0.7,0.2,1.2,0.7,1.4,1.4c0.1,0.4,0.3,0.8,0.4,1.2
			c0.3,0.6,0.1,1.3-0.5,1.6l-4.3,2.2c-0.4,0.1-0.6,0.6-0.5,0.9c0.1,0.2,0.2,0.3,0.3,0.4l3.4,2.8c0.6,0.4,1.3,0.6,2.1,0.4l5.2-1.7
			c0.7-0.2,1.5-0.1,2.2,0.1c0.9,0.4,1.8,0.7,2.8,1c0.7,0.2,1.1,0.8,1,1.5l-0.3,2.6c-0.1,0.6,0.4,1.2,1,1.3c0,0,0,0,0,0l6.7,0.6
			c0.7,0,1.4-0.4,1.7-1l1.4-2.6c0.4-0.6,1-1.1,1.7-1.2c1.2-0.1,2.3-0.3,3.5-0.5c0.7-0.1,1.5,0,2.1,0.4l3.6,2.4
			c0.6,0.4,1.4,0.4,2.1,0.2l5.4-2.2c0.4-0.1,0.7-0.5,0.5-1c0-0.1-0.1-0.3-0.2-0.4l-2.4-2.6c-0.4-0.4-0.4-1.1,0-1.5
			c0,0,0.1-0.1,0.1-0.1c0.5-0.4,1-0.9,1.5-1.3c0.5-0.5,1.2-0.8,2-0.9l6.1,0.2c0.7,0,1.3-0.5,1.6-1.1l1-3c0.2-0.5-0.1-1.1-0.6-1.3
			c-0.1,0-0.1,0-0.2-0.1l-5.8-0.9c-0.7-0.2-1.2-0.7-1.4-1.4c-0.1-0.4-0.3-0.8-0.4-1.2c-0.3-0.6-0.1-1.3,0.5-1.6l4.3-2.2
			c0.4-0.1,0.6-0.6,0.5-0.9c-0.1-0.2-0.2-0.3-0.3-0.4l-3.4-2.8C295,430,294.3,429.9,293.6,430.1z M283.4,437.7c4,3.4,2.5,8-3.3,10.5
			s-13.8,1.7-17.8-1.7s-2.5-8,3.3-10.5S279.4,434.3,283.4,437.7L283.4,437.7z"/>
		<path class="st8" d="M274.9,425.7L274.9,425.7l6.7,0.6h0.1c0,0,0,0.1,0,0.1l-0.3,2.6c-0.1,1.2,0.6,2.3,1.7,2.7
			c0.9,0.3,1.8,0.6,2.7,1c0.6,0.2,1.2,0.3,1.8,0.3c0.4,0,0.8-0.1,1.2-0.2l5.2-1.7c0.1,0,0.2,0,0.3,0c0.3,0,0.5,0.1,0.8,0.2l3.1,2.6
			l-4,2.1c-1.1,0.6-1.5,1.9-1,3c0.1,0.3,0.3,0.7,0.4,1c0.3,1.1,1.2,1.9,2.2,2.1l5.8,0.9l-1,3c-0.1,0.2-0.3,0.4-0.5,0.4l-6.1-0.2
			h-0.1c-1,0.1-2,0.5-2.7,1.2c-0.4,0.4-0.9,0.9-1.4,1.2c-0.5,0.4-0.8,0.9-0.8,1.5c-0.1,0.6,0.2,1.2,0.6,1.6l2.2,2.4l-5.1,2.1
			c-0.1,0-0.3,0.1-0.4,0.1c-0.2,0-0.5,0-0.7-0.2l-3.6-2.4c-0.7-0.4-1.5-0.6-2.3-0.6c-0.2,0-0.4,0-0.6,0.1c-1.1,0.2-2.2,0.4-3.4,0.5
			c-1.1,0.1-2.1,0.8-2.6,1.7l-1.2,2.6c-0.2,0.2-0.4,0.4-0.7,0.4l0,0l-6.7-0.6h-0.1c0,0,0-0.1,0-0.1l0.3-2.6c0.1-1.2-0.6-2.3-1.7-2.7
			c-0.9-0.3-1.8-0.6-2.7-1c-0.6-0.2-1.2-0.3-1.8-0.3c-0.4,0-0.8,0.1-1.2,0.2l-5.3,1.7c-0.1,0-0.2,0-0.3,0c-0.3,0-0.5-0.1-0.8-0.2
			l-3.1-2.6l4-2.1c1.1-0.6,1.5-1.9,1-3c-0.1-0.3-0.3-0.7-0.4-1c-0.3-1.1-1.2-1.9-2.2-2.1l-5.8-0.9l1-3c0.1-0.2,0.3-0.4,0.5-0.4
			l6.1,0.2h0.1c1-0.1,2-0.5,2.7-1.2c0.4-0.4,0.9-0.9,1.4-1.2c0.5-0.4,0.8-0.9,0.9-1.5c0-0.6-0.2-1.2-0.6-1.6l-2.2-2.3l5.1-2.1
			c0.1-0.1,0.3-0.1,0.4-0.1c0.2,0,0.5,0,0.7,0.2l3.6,2.4c0.7,0.4,1.5,0.6,2.3,0.6c0.2,0,0.4,0,0.6-0.1c1.1-0.2,2.2-0.4,3.4-0.5
			c1.1-0.1,2.1-0.8,2.6-1.7l1.4-2.6C274.3,425.9,274.6,425.7,274.9,425.7 M272.5,450.6c2.7,0,5.5-0.5,8-1.5c3.5-1.5,5.8-3.8,6.2-6.4
			c0.3-2.3-0.7-4.5-2.5-5.8c-2.5-2.1-6.5-3.3-10.9-3.3c-2.7,0-5.5,0.5-8,1.5c-3.5,1.5-5.8,3.8-6.2,6.4c-0.3,2.3,0.7,4.5,2.5,5.8
			C264.1,449.4,268.1,450.6,272.5,450.6 M274.9,424.6c-0.7,0-1.3,0.4-1.6,1l-1.4,2.6c-0.4,0.6-1,1.1-1.8,1.2
			c-1.2,0.1-2.3,0.3-3.5,0.5c-0.7,0.1-1.5,0-2.2-0.4l-3.6-2.4c-0.4-0.2-0.8-0.3-1.3-0.3c-0.3,0-0.6,0-0.8,0.1l-5.4,2.2
			c-0.4,0.1-0.7,0.5-0.5,0.9c0,0.2,0.1,0.3,0.2,0.4l2.4,2.6c0.4,0.4,0.4,1.1-0.1,1.5c0,0-0.1,0.1-0.1,0.1c-0.5,0.4-1,0.9-1.5,1.3
			c-0.5,0.5-1.2,0.8-2,0.9l0,0l-6.1-0.2l0,0c-0.7,0-1.3,0.5-1.5,1.1l-1,3c-0.2,0.5,0.1,1.1,0.6,1.3c0.1,0,0.1,0,0.2,0.1l5.8,0.9
			c0.7,0.2,1.2,0.7,1.4,1.4c0.1,0.4,0.3,0.8,0.4,1.2c0.3,0.6,0.1,1.3-0.5,1.6l-4.3,2.2c-0.4,0.1-0.6,0.6-0.5,0.9
			c0.1,0.2,0.2,0.3,0.3,0.4l3.4,2.8c0.4,0.3,0.9,0.5,1.4,0.5c0.2,0,0.4,0,0.6-0.1l5.2-1.7c0.3-0.1,0.6-0.1,0.9-0.1
			c0.5,0,0.9,0.1,1.3,0.2c0.9,0.4,1.8,0.7,2.8,1c0.7,0.2,1.1,0.8,1,1.5l-0.3,2.6c-0.1,0.6,0.4,1.2,1,1.3c0,0,0,0,0,0l6.7,0.6h0.1
			c0.7,0,1.3-0.4,1.6-1l1.4-2.6c0.4-0.6,1-1.1,1.7-1.2c1.2-0.1,2.3-0.3,3.5-0.5c0.1,0,0.3,0,0.5,0c0.6,0,1.2,0.2,1.7,0.5l3.6,2.4
			c0.4,0.2,0.8,0.3,1.3,0.3c0.3,0,0.6,0,0.8-0.1l5.4-2.2c0.4-0.1,0.7-0.5,0.5-1c0-0.1-0.1-0.3-0.2-0.4l-2.4-2.6
			c-0.4-0.4-0.4-1.1,0-1.5c0,0,0.1-0.1,0.1-0.1c0.5-0.4,1-0.9,1.5-1.3c0.5-0.5,1.2-0.8,1.9-0.9h0l6.1,0.2l0,0c0.7,0,1.3-0.5,1.5-1.1
			l1-3c0.2-0.5-0.1-1.1-0.6-1.3c-0.1,0-0.1,0-0.2-0.1l-5.8-0.9c-0.7-0.2-1.2-0.7-1.4-1.4c-0.1-0.4-0.3-0.8-0.4-1.2
			c-0.3-0.6-0.1-1.3,0.5-1.6l4.3-2.2c0.4-0.1,0.6-0.6,0.5-0.9c-0.1-0.2-0.2-0.3-0.3-0.4l-3.4-2.8c-0.4-0.3-0.9-0.5-1.5-0.5
			c-0.2,0-0.4,0-0.6,0.1l-5.2,1.7c-0.3,0.1-0.6,0.1-0.9,0.1c-0.5,0-0.9-0.1-1.3-0.2c-0.9-0.4-1.8-0.7-2.8-1c-0.6-0.2-1.1-0.8-1-1.5
			l0.3-2.6c0.1-0.6-0.3-1.2-1-1.3c0,0,0,0,0,0l-6.7-0.6L274.9,424.6z M272.5,449.5c-4,0-7.8-1.1-10.2-3.1c-4-3.4-2.5-8,3.3-10.5
			c2.4-1,5-1.4,7.6-1.4c4,0,7.8,1.1,10.2,3.1c4,3.4,2.5,8-3.3,10.5C277.7,449.1,275.1,449.5,272.5,449.5z"/>
	</g>
	<g id="freepik--gears--inject-2" class="st3">
		<path class="st8" d="M448.5,112.9l-3-6.8c-0.3-0.6-0.9-1-1.5-1.2c-0.8-0.3-1.6-0.6-2.3-0.9c-0.1-0.1-0.3-0.1-0.4,0
			c-0.1,0-0.2,0.1-0.2,0.3l-1.5,4c-0.3,0.9-1.3,1.4-2.2,1.1c-0.3-0.1-0.5-0.2-0.7-0.4l-5.2-4.7c-0.8-0.8-1.3-2-1.2-3.1l0.7-5.2
			c0-0.7-0.2-1.4-0.5-2c-0.8-1.1-1.6-2.3-2.4-3.6c-0.3-0.5-0.9-0.8-1.5-0.9l-3.5-0.1c-1.2-0.1-2.3-0.8-2.7-1.9l-2.8-7.6
			c-0.2-0.6-0.2-1.2,0.1-1.7c0.3-0.5,0.7-1,1.3-1.2l2.9-1c0.4-0.2,0.6-0.6,0.6-1c-0.2-1.2-0.3-2.4-0.4-3.7c-0.1-0.7-0.3-1.4-0.8-2
			l-4.6-4.8c-0.8-0.9-1.1-2.1-0.9-3.2l1.3-5.2c0.2-0.9,1-1.5,1.9-1.4c0.3,0.1,0.6,0.2,0.8,0.4l4.6,3.5c0.3,0.2,0.6,0.1,0.8-0.2
			c0,0,0,0,0,0c0.3-0.4,0.7-0.8,1.1-1.2c0.4-0.4,0.6-0.9,0.5-1.4l-2-6.8c-0.3-1.1,0.3-2.2,1.3-2.6c0.1,0,0.2-0.1,0.3-0.1l3.7-0.6
			c1.2-0.1,2.4,0.5,2.9,1.6l3,6.8c0.3,0.6,0.8,1,1.5,1.2c0.8,0.3,1.6,0.6,2.3,0.9c0.1,0.1,0.3,0.1,0.4,0c0.1,0,0.2-0.1,0.2-0.3
			l1.5-4c0.2-0.6,0.7-1,1.2-1.2c0.6-0.1,1.2,0,1.6,0.5l5.2,4.7c0.8,0.8,1.3,2,1.2,3.1l-0.7,5.2c0,0.7,0.1,1.4,0.5,2
			c0.8,1.1,1.6,2.3,2.4,3.6c0.3,0.5,0.9,0.8,1.5,0.9l3.5,0.1c1.2,0.1,2.3,0.8,2.7,1.9l2.8,7.6c0.2,0.6,0.2,1.2-0.1,1.7
			c-0.3,0.5-0.7,1-1.3,1.2l-2.9,1c-0.4,0.2-0.6,0.6-0.6,1c0.2,1.2,0.3,2.4,0.4,3.7c0.1,0.7,0.3,1.4,0.8,2l4.6,4.7
			c0.8,0.9,1.1,2.1,0.9,3.2l-1.3,5.2c-0.1,0.6-0.5,1.1-1.1,1.3c-0.6,0.2-1.2,0.1-1.7-0.3l-4.6-3.5c-0.3-0.2-0.7-0.1-0.8,0.2
			c-0.3,0.4-0.7,0.8-1.1,1.2c-0.4,0.4-0.6,0.9-0.5,1.4l2,6.8c0.2,0.6,0.1,1.2-0.2,1.7c-0.3,0.5-0.9,0.8-1.5,0.9l-3.7,0.6H451
			C449.9,114.4,449,113.8,448.5,112.9z M458.2,100.3l4.6,3.5l0.1,0.1c0,0,0.1-0.1,0.1-0.2l1.3-5.2c0.1-0.6-0.1-1.2-0.5-1.7l-4.6-4.8
			c-0.7-0.8-1.1-1.9-1.2-3c-0.1-1.2-0.2-2.3-0.4-3.5c-0.2-1.2,0.5-2.4,1.6-2.8l2.9-1c0.1-0.1,0.3-0.2,0.3-0.3c0.1-0.1,0.1-0.3,0-0.5
			l-2.8-7.6c-0.2-0.5-0.7-0.8-1.2-0.8l-3.5-0.1c-1.2-0.1-2.2-0.7-2.9-1.7c-0.7-1.2-1.5-2.4-2.3-3.5c-0.6-0.9-0.9-2-0.8-3.2l0.7-5.2
			c0-0.6-0.2-1.2-0.6-1.7l-5.2-4.7c0,0-0.1-0.1-0.1-0.1c0,0-0.1,0.1-0.1,0.2l-1.5,4c-0.2,0.5-0.6,1-1.1,1.2
			c-0.6,0.2-1.2,0.2-1.8-0.1c-0.7-0.3-1.4-0.6-2.1-0.8c-1.1-0.4-2-1.1-2.5-2.1l-3-6.8c-0.2-0.4-0.7-0.7-1.1-0.6l-3.7,0.6
			c-0.1,0-0.2,0.1-0.3,0.2c-0.1,0.1-0.1,0.2,0,0.4l2,6.9c0.3,1.1-0.1,2.3-1,3.1c-0.3,0.3-0.7,0.6-0.9,1c-0.7,1-2.1,1.2-3.1,0.5
			c0,0,0,0,0,0l-4.6-3.5l-0.1-0.1c0,0,0,0.1-0.1,0.2l-1.3,5.2l0,0c-0.1,0.6,0.1,1.2,0.5,1.7l4.6,4.8c0.7,0.8,1.2,1.9,1.2,3
			c0.1,1.2,0.2,2.3,0.4,3.5c0.2,1.2-0.5,2.4-1.6,2.8l-2.9,1c-0.1,0.1-0.3,0.2-0.3,0.3c-0.1,0.1-0.1,0.3,0,0.5l2.8,7.6
			c0.2,0.5,0.7,0.8,1.2,0.8l3.5,0.1c1.2,0.1,2.2,0.7,2.9,1.7c0.7,1.2,1.5,2.4,2.3,3.5c0.6,0.9,0.9,2,0.8,3.2l-0.7,5.2
			c0,0.6,0.2,1.2,0.6,1.7l5.2,4.7c0,0,0.1,0.1,0.1,0.1c0,0,0.1,0,0.1-0.2l1.5-4c0.2-0.6,0.6-1,1.2-1.2c0.6-0.2,1.2-0.2,1.7,0.1
			c0.7,0.3,1.4,0.6,2.1,0.8c1.1,0.4,2,1.1,2.5,2.2l3,6.8c0.2,0.4,0.7,0.7,1.1,0.6l3.7-0.6c0.1,0,0.2-0.1,0.3-0.2
			c0.1-0.1,0.1-0.2,0-0.4l-2-6.9c-0.3-1.1,0.1-2.3,1-3.1c0.3-0.3,0.7-0.6,0.9-1c0.4-0.6,1.1-0.9,1.8-0.9
			C457.4,99.8,457.8,100,458.2,100.3z M437.6,91.9L437.6,91.9c-5.8-5.2-9.3-14.7-7.8-21.1c0.7-2.9,2.4-4.9,4.7-5.6
			c2.8-0.9,6.3,0.3,9.6,3.2c5.8,5.2,9.3,14.7,7.8,21.1c-0.7,2.9-2.4,4.9-4.7,5.6c-0.6,0.2-1.3,0.3-1.9,0.3
			C442.8,95.3,440.1,94.1,437.6,91.9z M435,66.7c-1.8,0.6-3,2.1-3.5,4.4c-1.5,5.9,1.8,14.6,7.2,19.5c2.8,2.5,5.7,3.6,8,2.9
			c1.8-0.6,3-2.1,3.5-4.4c1.4-5.9-1.8-14.6-7.2-19.5c-2.2-2-4.5-3.1-6.5-3.1C436,66.5,435.5,66.5,435,66.7z"/>
		<path class="st8" d="M398.6,83.2l-2.1-4.8c-0.2-0.4-0.6-0.7-1-0.8c-0.6-0.2-1.1-0.4-1.6-0.7c-0.1,0-0.1,0-0.3,0.1l-1.1,2.9
			c-0.2,0.5-0.5,0.8-1,0.9c-0.5,0.1-1,0-1.3-0.4l-3.7-3.3c-0.6-0.6-0.9-1.5-0.9-2.3l0.5-3.7c0-0.5-0.1-0.9-0.4-1.3
			c-0.6-0.8-1.2-1.7-1.7-2.6c-0.2-0.3-0.5-0.5-0.9-0.6h-2.5c-0.9-0.1-1.7-0.6-2-1.4l-2-5.4c-0.2-0.4-0.1-0.9,0.1-1.3
			c0.2-0.4,0.6-0.7,1-0.9l2.1-0.7c0.2-0.1,0.3-0.3,0.3-0.5c-0.1-0.9-0.2-1.7-0.3-2.6c0-0.5-0.2-0.9-0.5-1.3l-3.2-3.5
			c-0.6-0.7-0.8-1.6-0.6-2.4l0.9-3.7c0.1-0.7,0.8-1.2,1.6-1.1c0.2,0,0.5,0.1,0.6,0.3l3.3,2.5c0.1,0.1,0.3,0,0.4-0.1
			c0.2-0.3,0.5-0.6,0.8-0.9c0.2-0.2,0.4-0.6,0.3-0.9l-1.5-4.9c-0.1-0.4-0.1-0.9,0.2-1.3c0.3-0.4,0.7-0.7,1.1-0.7l2.6-0.4
			c0.9-0.1,1.8,0.4,2.2,1.2l2.1,4.8c0.2,0.4,0.6,0.7,1,0.8c0.6,0.2,1.1,0.4,1.7,0.7c0.1,0,0.1,0,0.3-0.1l1.1-2.9
			c0.2-0.7,1-1.1,1.7-0.9c0.2,0.1,0.4,0.2,0.6,0.3l3.6,3.3c0.6,0.6,0.9,1.5,0.9,2.3l-0.5,3.7c0,0.5,0.1,0.9,0.4,1.3
			c0.6,0.8,1.2,1.7,1.7,2.6c0.2,0.3,0.5,0.5,0.9,0.5l2.5,0c0.9,0.1,1.7,0.6,2,1.5l2,5.4c0.2,0.4,0.1,0.9-0.1,1.3
			c-0.2,0.4-0.6,0.7-1,0.9l-2.1,0.7c-0.2,0.1-0.3,0.3-0.3,0.5c0.1,0.9,0.2,1.7,0.3,2.6c0,0.5,0.2,0.9,0.5,1.3l3.2,3.4
			c0.6,0.7,0.8,1.5,0.6,2.4l-0.9,3.7c-0.1,0.7-0.8,1.2-1.6,1.1c-0.2,0-0.5-0.1-0.6-0.3l-3.2-2.5c-0.2-0.1-0.3,0-0.4,0.1
			c-0.2,0.3-0.5,0.6-0.8,0.9c-0.2,0.2-0.4,0.6-0.3,0.9l1.5,4.9c0.1,0.4,0.1,0.9-0.2,1.3c-0.3,0.4-0.7,0.7-1.1,0.7l-2.6,0.4h-0.3
			C399.7,84.4,398.9,83.9,398.6,83.2z M405.7,74l3.2,2.5l0.9-3.7c0.1-0.4,0-0.8-0.3-1.1l-3.2-3.4c-0.5-0.6-0.9-1.4-0.9-2.2
			c0-0.8-0.1-1.7-0.3-2.5c-0.1-0.9,0.4-1.8,1.3-2.1l2.1-0.7c0.1,0,0.1-0.1,0.2-0.2c0-0.1,0-0.1,0-0.2l-2-5.4
			c-0.1-0.3-0.4-0.5-0.7-0.5h-2.5c-0.9-0.1-1.7-0.5-2.1-1.3c-0.5-0.8-1-1.7-1.6-2.5c-0.5-0.7-0.7-1.5-0.6-2.3l0.5-3.7
			c0-0.4-0.1-0.8-0.4-1.1l-3.7-3.3l-1.1,2.9c-0.2,0.4-0.5,0.8-0.9,0.9c-0.4,0.2-0.9,0.1-1.4-0.1c-0.5-0.2-1-0.4-1.5-0.6
			c-0.8-0.3-1.5-0.9-1.8-1.6l-2.1-4.8c-0.1-0.2-0.4-0.4-0.6-0.4l-2.6,0.4l-0.1-0.7v0.9l1.5,4.9c0.2,0.9-0.1,1.8-0.7,2.4
			c-0.2,0.2-0.5,0.4-0.6,0.7c-0.6,0.8-1.6,0.9-2.4,0.4c0,0,0,0,0,0l-3.2-2.5l-0.9,3.7l0,0c-0.1,0.4,0.1,0.8,0.3,1.1l3.2,3.4
			c0.5,0.6,0.9,1.4,0.9,2.2c0,0.8,0.1,1.7,0.3,2.5c0.1,0.9-0.4,1.8-1.3,2.1l-2.1,0.7c-0.1,0-0.1,0.1-0.2,0.2c0,0.1,0,0.1,0,0.2
			l2,5.4c0.1,0.3,0.4,0.5,0.7,0.5h2.5c0.9,0.1,1.7,0.5,2.1,1.3c0.5,0.8,1,1.7,1.6,2.5c0.5,0.7,0.7,1.5,0.6,2.3l-0.5,3.7
			c0,0.4,0.1,0.8,0.4,1.1l3.6,3.3l1.1-2.9c0.2-0.4,0.5-0.8,0.9-0.9c0.4-0.2,0.9-0.2,1.4,0.1c0.5,0.2,1,0.4,1.5,0.6
			c0.8,0.3,1.5,0.8,1.8,1.6l2.1,4.8c0.1,0.2,0.4,0.4,0.6,0.4l2.6-0.4l0.1-0.2l-1.5-4.9c-0.2-0.9,0.1-1.8,0.7-2.4
			c0.2-0.2,0.5-0.4,0.6-0.7c0.3-0.4,0.8-0.7,1.4-0.7C405,73.6,405.4,73.8,405.7,74z M390.9,68.2L390.9,68.2
			c-4.2-3.8-6.7-10.5-5.5-15.2c0.3-1.9,1.6-3.5,3.4-4.1c2.1-0.6,4.6,0.2,6.9,2.3c4.2,3.8,6.7,10.5,5.5,15.1
			c-0.3,1.9-1.6,3.5-3.4,4.1c-0.5,0.1-0.9,0.2-1.4,0.2C394.3,70.6,392.3,69.7,390.9,68.2L390.9,68.2z M389.1,50.4
			c-1.3,0.5-2.2,1.7-2.4,3c-1,4.2,1.3,10.3,5.1,13.7l0,0c2,1.8,4,2.5,5.5,2c1.3-0.5,2.2-1.7,2.4-3.1c1-4.1-1.3-10.3-5.1-13.7
			c-1.2-1.2-2.8-2-4.5-2.2C389.8,50.2,389.5,50.3,389.1,50.4z"/>
	</g>
</g>
<g id="freepik--Folders--inject-2" class="st1">
	<g id="freepik--Files--inject-2" class="st3">
		<path class="st9" d="M437,281.2c0.5-0.2,0.8-0.7,0.9-1.2v-1.8L337,221.1c-1.3-0.7-2.8-0.7-4.1,0l-79.3,45.8L357.7,327L437,281.2z"
			/>
		<path class="st10" d="M437,281.2c0.5-0.2,0.8-0.7,0.9-1.2v-1.8L337,221.1c-1.3-0.7-2.8-0.7-4.1,0l-79.3,45.8L357.7,327L437,281.2z
			"/>
		<path class="st9" d="M437,279.4c0.7-0.2,1-0.9,0.8-1.6c-0.1-0.4-0.4-0.7-0.8-0.8l-100-57.7c-1.3-0.7-2.8-0.7-4.1,0l-79.3,45.8
			l104.1,60.1L437,279.4z"/>
		<path class="st11" d="M437,279.4c0.7-0.2,1-0.9,0.8-1.6c-0.1-0.4-0.4-0.7-0.8-0.8l-100-57.7c-1.3-0.7-2.8-0.7-4.1,0l-79.3,45.8
			l104.1,60.1L437,279.4z"/>
		<path class="st8" d="M271.8,253.1l58.7-33.9c1.3-0.7,2.8-0.7,4.1,0l93.2,53.8l7.6-4.5v9l-0.1,0.1c0.3,0.6,0,1.2-0.7,1.6
			l-67.2,38.8l-104.1-60v-9.9L271.8,253.1z"/>
		<path class="st0" d="M434.6,269.5c0.7-0.2,1-0.9,0.8-1.6c-0.1-0.4-0.4-0.7-0.8-0.8l-100-57.7c-1.3-0.6-2.8-0.6-4.1,0l-67.2,38.8
			l104.1,60.1L434.6,269.5z"/>
		<polygon class="st4" points="367.4,308.3 367.4,318.2 263.3,258.1 263.3,248.2 		"/>
		<path class="st12" d="M366.3,304.4c0.2,0.1,0.5,0.2,0.8,0.3c0.4,0.1,0.8,0.1,1.2,0c0.1,0,0.3-0.1,0.4-0.1c0.6-0.3,0.5-1-0.2-1.4
			c-0.3-0.2-0.7-0.3-1.1-0.3c-0.4-0.1-0.9,0-1.3,0.2c0,0-0.1,0-0.1,0.1C365.5,303.5,365.6,304,366.3,304.4z"/>
		<path class="st12" d="M356,312.1c-0.1,1.2,0.3,2.4,1,3.4c0.7,0.9,1.8,1.4,2.9,1.4l0,0c1,0,2-0.3,2.9-0.9c0.2-0.1,0.4-0.2,0.5-0.3
			l-1.2-0.7c-2.8,1.6-5,0.2-5-3c0.2-3.6,2.1-6.8,5.1-8.8c1.5-0.9,2.9-0.9,3.8-0.2c0.5,0.4,0.9,0.9,1,1.5c0.4,0.1,0.8,0.1,1.2,0
			c-0.1-0.7-0.4-1.3-0.9-1.8c-0.7-0.9-1.8-1.4-2.9-1.4c-1,0-2,0.3-2.9,0.9C358.3,304.5,356.2,308.2,356,312.1z"/>
		<path class="st9" d="M358.9,302.8l78.9-38.6v1.3c0,0.7-0.4,1.4-1,1.8l-77.9,37.3L358.9,302.8z"/>
		<path class="st10" d="M358.9,302.8l78.9-38.6v1.3c0,0.7-0.4,1.4-1,1.8l-77.9,37.3L358.9,302.8z"/>
		<path class="st9" d="M437,265.4c0.7-0.2,1-0.9,0.8-1.6c-0.1-0.4-0.4-0.7-0.8-0.8l-100-57.7c-1.3-0.7-2.8-0.7-4.1,0l-79.3,38.1
			l104.1,60.1L437,265.4z"/>
		<path class="st13" d="M437,265.4c0.7-0.2,1-0.9,0.8-1.6c-0.1-0.4-0.4-0.7-0.8-0.8l-100-57.7c-1.3-0.7-2.8-0.7-4.1,0l-79.3,38.1
			l104.1,60.1L437,265.4z"/>
		<polygon class="st9" points="357.7,327 253.6,266.9 253.6,243.4 357.7,303.5 		"/>
		<path class="st14" d="M339.6,311.9c1.2,0,2.3-0.5,3-1.4c0.7-1,1.1-2.2,1-3.4c-0.2-4-2.3-7.7-5.7-9.8c-0.9-0.5-1.8-0.8-2.9-0.9
			c-2.4,0-4,1.9-4,4.8c0.2,4,2.3,7.7,5.7,9.8C337.7,311.6,338.6,311.9,339.6,311.9z"/>
		<path class="st7" d="M342.5,307.1c0,3.2-2.3,4.5-5.1,2.9c-3-2-4.9-5.2-5.1-8.8c0-3.2,2.3-4.5,5.1-2.9
			C340.4,300.2,342.3,303.5,342.5,307.1z"/>
		<path class="st7" d="M324,295.2v1.8c0,3.6-2.5,5-5.6,3.2L266.2,270c-3.3-2.2-5.4-5.7-5.6-9.7v-1.8c0-3.6,2.5-5,5.6-3.2l52.3,30.2
			C321.7,287.7,323.8,291.3,324,295.2z"/>
		<polygon class="st9" points="358.9,326.2 358.9,302.9 357.7,303.5 357.7,327 		"/>
		<polygon class="st10" points="358.9,326.2 358.9,302.9 357.7,303.5 357.7,327 		"/>
		<path class="st9" d="M254.4,238.3c0.1,0.6,0.4,1.1,0.9,1.4l102.3,59c0.6,0.3,1.2,0.3,1.8,0l80.4-40.7v-1.8l-104.1-60.1l-80.4,40.7
			C254.8,237.2,254.5,237.7,254.4,238.3z"/>
		<path class="st11" d="M439.9,256.3L359.5,297c-0.3,0.1-0.6,0.2-0.9,0.2c-0.3,0-0.6-0.1-0.9-0.2l-102.3-59.1
			c-0.3-0.1-0.4-0.4-0.3-0.7c0.1-0.1,0.2-0.2,0.3-0.3l80.4-40.7L439.9,256.3z"/>
		<path class="st10" d="M439.9,256.3v1.8l-80.4,40.7c-0.3,0.1-0.6,0.2-0.9,0.2v-1.8c0.3,0,0.6-0.1,0.9-0.2L439.9,256.3z"/>
		<polygon class="st9" points="438.6,257 334.5,197 334.5,173.4 438.6,233.8 		"/>
		<polygon class="st15" points="438.6,257 334.5,197 334.5,173.4 438.6,233.8 		"/>
		<path class="st8" d="M255.6,225.7c-0.7,0.4-1.1,1.2-1.1,1.9v4.8c0,0.8,0.5,1.5,1.1,1.9l101.9,58.8c0.7,0.4,1.5,0.4,2.2,0
			l68.2-36.9v-7.3l-104.1-60.1L255.6,225.7z"/>
		<path class="st0" d="M323.7,188.8l-68.2,36.9c-0.6,0.4-0.6,0.9,0,1.3l101.9,58.8c0.7,0.4,1.5,0.4,2.2,0l68.2-36.9L323.7,188.8z"/>
		<path class="st12" d="M419.1,249.5c0.2,0.1,0.5,0.2,0.8,0.3c0.4,0.1,0.8,0.1,1.2,0c0.1,0,0.3-0.1,0.4-0.1c0.6-0.3,0.5-1-0.2-1.4
			c-0.3-0.2-0.7-0.3-1.1-0.3c-0.4-0.1-0.9,0-1.3,0.2c0,0-0.1,0.1-0.1,0.1C418.4,248.6,418.5,249.1,419.1,249.5z"/>
		<path class="st4" d="M358.5,286v7.4c-0.4,0-0.8-0.1-1.1-0.3l-101.9-58.8c-0.7-0.4-1.1-1.2-1.1-1.9v-4.8c0-0.7,0.3-1.3,0.9-1.7
			c-0.3,0.3-0.3,0.8,0.3,1.1l101.9,58.8C357.8,285.9,358.2,286,358.5,286z"/>
		<path class="st12" d="M431.1,239.3c-1.5-0.8-3.3-0.7-4.6,0.3c-2.8,1.6-5.2,5.3-6.3,9.3l1.5,0.2c1-3.6,3.2-6.9,5.5-8.3
			c0.6-0.4,1.2-0.6,1.9-0.6c0.4,0,0.8,0.1,1.2,0.3c1.2,0.7,1.9,2.7,1.8,5.2c-0.1,4.9-2.9,10.4-6.2,12.3c-0.7,0.4-1.5,0.6-2.3,0.6
			l-1.7,1l0.1,0.1c0.6,0.4,1.3,0.5,1.9,0.5c0.9,0,1.9-0.3,2.7-0.8c3.8-2.2,6.8-8.1,7-13.5C433.7,242.7,432.8,240.3,431.1,239.3z"/>
		<path class="st9" d="M254.4,223.4c0.1,0.6,0.4,1.1,0.9,1.4l102.3,59c0.6,0.3,1.2,0.3,1.8,0l80.4-49.1v-1.8l-104.1-60.1L255.3,222
			C254.8,222.3,254.5,222.8,254.4,223.4z"/>
		<path class="st9" d="M439.9,232.9l-80.4,49.1c-0.3,0.1-0.6,0.2-0.9,0.2c-0.3,0-0.6-0.1-0.9-0.2L255.3,223c-0.5-0.3-0.5-0.7,0-1
			l80.4-49.1L439.9,232.9z"/>
		<path class="st16" d="M439.9,232.9l-80.4,49.1c-0.3,0.1-0.6,0.2-0.9,0.2c-0.3,0-0.6-0.1-0.9-0.2L255.3,223c-0.5-0.3-0.5-0.7,0-1
			l80.4-49.1L439.9,232.9z"/>
		<path class="st10" d="M439.9,232.9v1.8l-80.4,49.1c-0.3,0.2-0.6,0.2-0.9,0.2v-1.8c0.3,0,0.6-0.1,0.9-0.2L439.9,232.9z"/>
		<polygon class="st9" points="439.9,256.3 439.9,233 438.6,233.8 438.6,257 		"/>
		<polygon class="st10" points="439.9,256.3 439.9,233 438.6,233.8 438.6,257 		"/>
	</g>
</g>
<g id="freepik--Sheets--inject-2" class="st1">
	<g id="freepik--sheets--inject-2_00000049914741517827227650000015616289350628627076_" class="st3">
		<polygon id="freepik--shadow--inject-2_00000018931091680581872890000003017452218233581467_" class="st17" points="268.8,215.4 
			336.7,176.2 434.7,232.9 366.8,272.1 		"/>
		<g id="freepik--sheets--inject-2">
			<g id="freepik--Character--inject-2">
				<polygon class="st6" points="277.5,215.3 367.1,267.2 367.1,212.2 277.5,160.3 				"/>
				<polygon class="st8" points="429.3,231.3 367.1,267.2 367.1,212.2 429.3,176.3 				"/>
				<polygon class="st18" points="277.5,160.3 339.6,124.4 429.3,176.3 367.1,212.2 				"/>
				<path class="st8" d="M339.6,125.6l87.7,50.7l-60.2,34.8l-87.7-50.7L339.6,125.6 M339.6,124.4l-62.2,35.9l89.7,51.9l62.2-35.9
					C429.3,176.3,339.6,124.4,339.6,124.4z"/>
			</g>
			<polygon class="st5" points="324.2,205.8 367.1,230.6 392.9,215.7 367.1,232.1 			"/>
			<polygon class="st5" points="298.4,204.8 367.1,244.4 418.7,214.7 367.1,245.9 			"/>
			<path class="st5" d="M286.1,180.7c0,0-1.4,8-0.7,12.1c0,0,11.2-0.3,30.2,5L286.1,180.7z"/>
			<polygon class="st18" points="286.1,180.7 315.6,197.8 283,188.4 			"/>
			<path class="st5" d="M324.2,228.3l32.4,29.7c0,0,0.9-4.1,7.1-7L324.2,228.3z"/>
			<polygon class="st18" points="324.2,228.3 354.6,253.9 363.7,251.1 			"/>
			<path class="st5" d="M418.9,198.2c-0.2-0.3-0.3-0.4-0.3-0.4l-20.4,11.8l23-1.9C422,203.4,419.8,199.4,418.9,198.2z"/>
			<polygon class="st0" points="398.2,209.6 418.7,197.8 425.5,201.4 			"/>
			<g class="st19">
				<path d="M293.3,164.1c-0.4,0-0.8-0.3-0.8-0.8c0-0.3,0.2-0.6,0.4-0.7l51.5-29.8c0.4-0.2,0.9-0.1,1.1,0.3c0.2,0.4,0.1,0.9-0.3,1.1
					c0,0,0,0,0,0L293.7,164C293.5,164.1,293.4,164.1,293.3,164.1z"/>
				<path d="M301.9,169.1c-0.3,0-0.5-0.2-0.7-0.4c-0.2-0.4-0.1-0.9,0.3-1.1c0,0,0,0,0,0l51.5-29.8c0.4-0.2,0.9-0.1,1.1,0.3
					c0.2,0.4,0.1,0.9-0.3,1.1l0,0L302.2,169C302.1,169.1,302,169.1,301.9,169.1z"/>
				<path d="M310.4,174.1c-0.4,0-0.8-0.3-0.8-0.8c0-0.3,0.2-0.6,0.4-0.7l51.5-29.8c0.4-0.2,0.9-0.1,1.1,0.3c0.2,0.4,0.1,0.9-0.3,1.1
					L310.8,174C310.7,174.1,310.6,174.1,310.4,174.1z"/>
				<path d="M319,179c-0.4,0-0.8-0.3-0.8-0.8c0-0.3,0.2-0.6,0.4-0.7l51.5-29.8c0.4-0.2,0.9-0.1,1.1,0.3c0.2,0.4,0.1,0.9-0.3,1.1
					l-51.5,29.8C319.3,179,319.1,179,319,179z"/>
				<path d="M327.6,184c-0.4,0-0.8-0.3-0.8-0.8c0-0.3,0.2-0.6,0.4-0.7l51.5-29.8c0.4-0.2,0.9-0.1,1.1,0.3c0.2,0.4,0.1,0.9-0.3,1.1
					L328,183.9C327.9,184,327.7,184,327.6,184z"/>
				<path d="M336.2,188.9c-0.4,0-0.8-0.4-0.8-0.8c0-0.3,0.2-0.5,0.4-0.7l51.5-29.8c0.4-0.2,0.9-0.1,1.1,0.3c0.2,0.4,0.1,0.9-0.3,1.1
					l-51.5,29.8C336.5,188.9,336.3,188.9,336.2,188.9z"/>
				<path d="M344.8,193.9c-0.3,0-0.5-0.1-0.7-0.4c-0.2-0.4-0.1-0.9,0.3-1.1l51.5-29.8c0.4-0.2,0.9-0.1,1.1,0.3
					c0.2,0.4,0.1,0.9-0.3,1.1l-51.5,29.7C345.1,193.9,344.9,193.9,344.8,193.9z"/>
				<path d="M353.4,198.9c-0.3,0-0.5-0.1-0.7-0.4c-0.2-0.4-0.1-0.9,0.3-1.1l51.5-29.8c0.4-0.2,0.9-0.1,1.1,0.3
					c0.2,0.4,0.1,0.9-0.3,1.1l-51.5,29.8C353.7,198.8,353.5,198.9,353.4,198.9z"/>
				<path d="M362,203.8c-0.4,0-0.8-0.3-0.8-0.8c0-0.3,0.2-0.6,0.4-0.7l51.5-29.8c0.4-0.2,0.9-0.1,1.1,0.3c0.2,0.4,0.1,0.9-0.3,1.1
					c0,0,0,0,0,0l-51.5,29.8C362.3,203.8,362.1,203.8,362,203.8z"/>
			</g>
		</g>
		<polygon class="st5" points="420,174.8 363.4,210 363.4,219.8 277.5,170.7 277.5,160.3 336.9,126 		"/>
		<g id="freepik--sheets--inject-2_00000033346100659353119950000007655999250540779393_">
			<g id="freepik--character--inject-2">
				<polygon class="st6" points="265.5,158.9 355.2,210.8 355.2,155.8 265.5,103.9 				"/>
				<polygon class="st8" points="417.4,174.9 355.2,210.8 355.2,155.8 417.4,119.9 				"/>
				<polygon class="st18" points="265.5,103.9 327.7,68.1 417.4,119.9 355.2,155.8 				"/>
				<path class="st8" d="M327.7,69.2l87.7,50.7l-60.2,34.8l-87.7-50.7L327.7,69.2 M327.7,68.1l-62.2,35.9l89.7,51.9l62.2-35.9
					L327.7,68.1z"/>
			</g>
			<polygon class="st5" points="312.3,149.4 355.2,174.2 381,159.3 355.2,175.7 			"/>
			<polygon class="st5" points="286.5,148.4 355.2,188.1 406.7,158.3 355.2,189.6 			"/>
			<path class="st5" d="M274.2,124.3c0,0-1.4,8-0.7,12.1c0,0,11.2-0.3,30.2,5L274.2,124.3z"/>
			<polygon class="st18" points="274.2,124.3 303.7,141.4 271,132 			"/>
			<path class="st5" d="M312.3,171.9l32.4,29.8c0,0,0.9-4.1,7.1-7L312.3,171.9z"/>
			<polygon class="st0" points="312.3,171.9 342.7,197.5 351.7,194.7 			"/>
			<path class="st5" d="M407,141.8c-0.2-0.3-0.3-0.4-0.3-0.4l-20.5,11.8l23-1.9C410.1,147,407.8,143,407,141.8z"/>
			<polygon class="st0" points="386.3,153.2 406.7,141.4 413.5,145 			"/>
			<g class="st19">
				<path d="M281.3,107.8c-0.3,0-0.5-0.1-0.7-0.4c-0.2-0.4-0.1-0.9,0.3-1.1l51.5-29.8c0.4-0.2,0.9-0.1,1.1,0.3
					c0.2,0.4,0.1,0.9-0.3,1.1l-51.5,29.8C281.6,107.7,281.5,107.8,281.3,107.8z"/>
				<path d="M289.9,112.7c-0.4,0-0.8-0.3-0.8-0.8c0-0.3,0.2-0.6,0.4-0.7l51.5-29.8c0.4-0.2,0.9-0.1,1.1,0.3c0.2,0.4,0.1,0.9-0.3,1.1
					l-51.5,29.8C290.2,112.7,290.1,112.7,289.9,112.7z"/>
				<path d="M298.5,117.7c-0.4,0-0.8-0.3-0.8-0.8c0-0.3,0.2-0.6,0.4-0.7l51.5-29.8c0.4-0.2,0.9-0.1,1.1,0.3c0.2,0.4,0.1,0.9-0.3,1.1
					l0,0l-51.5,29.8C298.8,117.6,298.7,117.7,298.5,117.7z"/>
				<path d="M307.1,122.6c-0.4,0-0.8-0.3-0.8-0.8c0-0.3,0.2-0.6,0.4-0.7l51.5-29.8c0.4-0.2,0.9-0.1,1.1,0.3c0.2,0.4,0.1,0.9-0.3,1.1
					c0,0,0,0,0,0l-51.5,29.8C307.4,122.6,307.2,122.6,307.1,122.6z"/>
				<path d="M315.7,127.6c-0.3,0-0.5-0.2-0.7-0.4c-0.2-0.4-0.1-0.9,0.3-1.1l51.5-29.8c0.4-0.2,0.9-0.1,1.1,0.3
					c0.2,0.4,0.1,0.9-0.3,1.1c0,0,0,0,0,0l-51.5,29.8C316,127.6,315.8,127.6,315.7,127.6z"/>
				<path d="M324.3,132.6c-0.3,0-0.5-0.2-0.7-0.4c-0.2-0.4-0.1-0.9,0.3-1.1c0,0,0,0,0,0l51.5-29.8c0.4-0.2,0.9-0.1,1.1,0.3
					c0.2,0.4,0.1,0.9-0.3,1.1l-51.5,29.8C324.6,132.5,324.4,132.6,324.3,132.6z"/>
				<path d="M332.9,137.5c-0.3,0-0.5-0.2-0.7-0.4c-0.2-0.4-0.1-0.9,0.3-1.1c0,0,0,0,0,0l51.5-29.8c0.4-0.2,0.9,0,1.1,0.4
					c0.1,0.3,0,0.7-0.3,1l-51.5,29.8C333.1,137.5,333,137.5,332.9,137.5z"/>
				<path d="M341.5,142.5c-0.4,0-0.8-0.3-0.8-0.8c0-0.3,0.2-0.6,0.4-0.7l51.5-29.8c0.4-0.2,0.9,0,1.1,0.4c0.1,0.3,0,0.7-0.3,1
					l-51.5,29.7C341.7,142.4,341.6,142.5,341.5,142.5z"/>
				<path d="M350,147.4c-0.4,0-0.8-0.3-0.8-0.8c0-0.3,0.2-0.6,0.4-0.7l51.5-29.8c0.4-0.2,0.9,0,1.1,0.4c0.1,0.3,0,0.7-0.3,1
					l-51.5,29.7C350.3,147.4,350.1,147.4,350,147.4z"/>
			</g>
		</g>
	</g>
</g>
<g id="freepik--Timer--inject-2" class="st1">
	<g id="freepik--timer--inject-2" class="st3">
		<g id="freepik--Clock--inject-2">
			<g id="freepik--clock--inject-2">
				<path class="st9" d="M211.8,68.6l-33.6-19.4l-0.1-0.1l-0.2-0.1l0,0c-16.3-9.2-38.7-7.8-63.5,6.5
					c-49.8,28.8-90.2,98.7-90.2,156.3c0,28.6,10,48.7,26.1,58.2l0,0l0.2,0.1l0.1,0.1l33.6,19.4l5.7-15.1c8.8-2.2,17.2-5.7,25-10.3
					c49.8-28.8,90.2-98.7,90.2-156.2c0.1-9-1.1-17.9-3.5-26.6L211.8,68.6z"/>
				<path class="st20" d="M211.8,68.6l-33.6-19.4l-0.1-0.1l-0.2-0.1l0,0c-16.3-9.2-38.7-7.8-63.5,6.5
					c-49.8,28.8-90.2,98.7-90.2,156.3c0,28.6,10,48.7,26.1,58.2l0,0l0.2,0.1l0.1,0.1l33.6,19.4l5.7-15.1c8.8-2.2,17.2-5.7,25-10.3
					c49.8-28.8,90.2-98.7,90.2-156.2c0.1-9-1.1-17.9-3.5-26.6L211.8,68.6z"/>
				<path class="st17" d="M24.9,197.6c-0.5,4.7-0.8,9.4-0.8,14.1c0,28.6,10,48.7,26.1,58.2l0,0l0.2,0.1l0.1,0.1l33.6,19.4l5.7-15.1
					c1.9-0.5,3.8-1,5.7-1.6l8.5-29.4L24.9,197.6z"/>
				<ellipse transform="matrix(0.5 -0.866 0.866 0.5 -81.0465 218.0936)" class="st9" cx="148.4" cy="179.2" rx="127.6" ry="73.7"/>
				
					<ellipse transform="matrix(0.5 -0.866 0.866 0.5 -81.0465 218.0936)" class="st21" cx="148.4" cy="179.2" rx="127.6" ry="73.7"/>
				<path class="st9" d="M216.8,93.2c-11.2-19.4-34.1-21.6-61.3-5.8c-45.1,26-83.1,91.9-83.1,144c0,13.6,2.6,25.4,7.6,33.9
					c11.2,19.4,34.1,21.6,61.3,5.8c45.1-26,83.1-91.9,83.1-144C224.4,113.5,221.8,101.8,216.8,93.2L216.8,93.2z"/>
				<path class="st9" d="M218,93.9c-12.7-20.2-37.2-23.3-65.6-8.3c-47,24.9-85.1,90.8-83.1,144c0.5,13.9,3.8,26,9.4,35
					c12.7,20.2,37.2,23.4,65.7,8.3c47.1-24.9,85.1-90.8,83.1-144C226.9,115,223.6,102.9,218,93.9L218,93.9z"/>
				<path class="st20" d="M218,93.9c-12.7-20.2-37.2-23.3-65.6-8.3c-47,24.9-85.1,90.8-83.1,144c0.5,13.9,3.8,26,9.4,35
					c12.7,20.2,37.2,23.4,65.7,8.3c47.1-24.9,85.1-90.8,83.1-144C226.9,115,223.6,102.9,218,93.9L218,93.9z"/>
				<path class="st0" d="M135.1,267.7c-18.1,9.6-34.6,11.8-47.5,6.9c-3.6-2.8-6.6-6.2-9-10c-5.6-9-8.9-21.1-9.4-35
					c-2-53.2,36.1-119.1,83.1-144c18.1-9.6,34.6-11.7,47.5-6.9c3.6,2.8,6.6,6.2,9,10l0,0c5.6,9,8.9,21.1,9.4,35
					C220.2,177,182.2,242.9,135.1,267.7z"/>
				<path class="st22" d="M148.6,179.2l-49.8-3.4c12.1-23.6,27.1-41.5,45-53.4L148.6,179.2z"/>
				<path class="st9" d="M142.8,98.7c-1.1,0.8-1.9,2.1-1.9,3.5v9.8c0,1.3,0.9,1.9,1.9,1.2c1.1-0.8,1.9-2.1,1.9-3.5V100
					C144.7,98.7,143.9,98.1,142.8,98.7z"/>
				<path class="st9" d="M207.6,136.1c-0.1,1.4-0.8,2.6-2,3.4l-8.5,4.9c-1.1,0.6-2,0.2-2-1c0.1-1.4,0.8-2.6,2-3.4l8.5-4.9
					C206.7,134.4,207.6,134.9,207.6,136.1z"/>
				<path class="st9" d="M75.6,215.1c0.1-1.4,0.9-2.6,2.1-3.4l8.5-4.9c1.1-0.6,2-0.2,2,1c-0.1,1.4-0.9,2.6-2.1,3.4l-8.5,4.9
					C76.5,216.8,75.6,216.3,75.6,215.1z"/>
				<path class="st9" d="M140.4,252.5c1.1-0.8,1.9-2.1,1.9-3.5v-9.8c0-1.3-0.9-1.9-1.9-1.2c-1.1,0.8-1.9,2.1-1.9,3.5v9.8
					C138.5,252.6,139.4,253.1,140.4,252.5z"/>
			</g>
			<polygon class="st9" points="146.6,182.8 98.8,175.9 150.4,175.9 			"/>
			<path class="st23" d="M148.5,123.4c0,0,4.4,41.1,5.8,50.6c0.1,0.6,0.2,1.1,0.2,1.7c-0.2,4.3-2.5,8.3-6.2,10.7
				c-1.7,1-3.2,1.1-4.4,0.4c-0.6-0.3-2.7-1.6-3.3-1.9c-1.1-0.6-1.8-2-1.8-4c-0.6-9.9,3.1-57.1,3.1-57.1l3.2-2.3L148.5,123.4z"/>
			<path class="st14" d="M154.5,175.7c-0.2,4.3-2.5,8.3-6.2,10.7c-3.4,2-6.2,0.4-6.2-3.6c-0.6-9.8,3.1-57.1,3.1-57.1l3.2-2.3
				C148.5,123.4,154.5,171.7,154.5,175.7z"/>
			<path class="st12" d="M151.1,177.6c-0.1,2-1.1,3.7-2.8,4.8c-1.5,0.9-2.8,0.2-2.8-1.6c0.1-2,1.1-3.7,2.8-4.8
				C149.9,175.1,151.1,175.9,151.1,177.6z"/>
			
				<rect x="188.2" y="174.5" transform="matrix(0.9928 -0.1194 0.1194 0.9928 -19.5082 24.3282)" class="st23" width="10" height="0.8"/>
			
				<rect x="165.8" y="216.3" transform="matrix(0.9207 -0.3903 0.3903 0.9207 -73.1836 82.4113)" class="st23" width="0.8" height="10"/>
			
				<rect x="116.1" y="126.2" transform="matrix(0.9207 -0.3903 0.3903 0.9207 -41.9674 55.8875)" class="st23" width="0.8" height="10"/>
			
				<rect x="85.4" y="176.2" transform="matrix(0.9928 -0.1196 0.1196 0.9928 -20.4777 12.0835)" class="st23" width="10" height="0.8"/>
			
				<rect x="194" y="111.3" transform="matrix(0.6656 -0.7463 0.7463 0.6656 -16.2496 187.0767)" class="st23" width="13.4" height="0.8"/>
			
				<rect x="160.8" y="92.1" transform="matrix(0.3142 -0.9494 0.9494 0.3142 27.0478 222.4775)" class="st23" width="13.4" height="0.8"/>
			
				<rect x="109" y="258.3" transform="matrix(0.3142 -0.9494 0.9494 0.3142 -166.2973 287.3063)" class="st23" width="13.4" height="0.8"/>
			
				<rect x="75.9" y="239.2" transform="matrix(0.6656 -0.7463 0.7463 0.6656 -151.2466 141.7474)" class="st23" width="13.4" height="0.8"/>
		</g>
		<path class="st14" d="M140.8,44c-0.1-1.1-0.8-2.1-1.8-2.5c-2.7-1.4-5.9-1.4-8.7,0c-1,0.4-1.7,1.4-1.8,2.5v23.5
			c0.1,1.1,0.8,2.1,1.8,2.5c2.7,1.4,5.9,1.4,8.7,0c1-0.4,1.7-1.4,1.8-2.5L140.8,44z"/>
		<path class="st23" d="M130.4,46.5c-1-0.4-1.7-1.4-1.8-2.5c0.1-1.1,0.8-2.1,1.8-2.5c2.7-1.4,5.9-1.4,8.7,0c1,0.4,1.7,1.4,1.8,2.5
			c-0.1,1.1-0.8,2.1-1.8,2.5C136.3,47.9,133.1,47.9,130.4,46.5z"/>
		<path class="st9" d="M152.2,29.6c0-2.6-1.7-5.2-5.1-7.1c-6.8-3.9-17.9-3.9-24.8,0c-3.4,2-5.1,4.6-5.1,7.1V51
			c0,2.6,1.7,5.2,5.1,7.1c6.8,4,17.9,4,24.8,0c3.4-2,5.1-4.6,5.1-7.1V29.6z"/>
		<path class="st24" d="M122.3,36.7c-3.4-2-5.1-4.6-5.1-7.1s1.7-5.2,5.1-7.1c6.8-3.9,17.9-3.9,24.8,0c3.4,2,5.1,4.6,5.1,7.1
			s-1.7,5.2-5.1,7.1C140.2,40.7,129.1,40.7,122.3,36.7z"/>
		<path class="st13" d="M123.1,37.1v21.4c0.5,0.2,1,0.5,1.5,0.7V37.8C124.1,37.6,123.6,37.4,123.1,37.1z M128.4,39v21.5
			c0.5,0.1,1,0.2,1.5,0.2V39.3C129.4,39.2,128.9,39.1,128.4,39z M118.8,33.8v21.4c0.5,0.6,1,1.1,1.5,1.5V35.4
			C119.8,34.9,119.2,34.4,118.8,33.8L118.8,33.8z M144.6,37.9v21.4c0.6-0.2,1-0.5,1.5-0.7V37.2C145.6,37.5,145.1,37.7,144.6,37.9
			L144.6,37.9z M148.8,35.5v21.4c0.6-0.5,1.1-0.9,1.5-1.5V34.1C149.9,34.6,149.4,35.1,148.8,35.5L148.8,35.5z M139.2,39.3v21.4
			c0.5-0.1,1-0.2,1.5-0.2V39C140.2,39.2,139.7,39.2,139.2,39.3L139.2,39.3z M133.9,39.6v21.4h1.5V39.7
			C134.9,39.7,134.4,39.7,133.9,39.6L133.9,39.6z"/>
		<path class="st14" d="M70.9,96c-0.9-0.6-2.1-0.7-3.1-0.2c-2.8,1.2-4.9,3.6-5.6,6.6c-0.3,1.1,0,2.2,0.8,3l17.9,15.1
			c0.9,0.6,2.1,0.7,3.1,0.2c2.8-1.2,4.9-3.6,5.6-6.6c0.3-1.1,0-2.2-0.8-3L70.9,96z"/>
		<path class="st23" d="M66.1,105.6c-1.2,0.8-2.9,0.4-3.6-0.9c-0.4-0.7-0.5-1.6-0.2-2.4c0.7-3,2.8-5.4,5.6-6.6
			c1.3-0.7,2.9-0.3,3.6,0.9c0.4,0.7,0.5,1.6,0.2,2.3C70.9,101.9,68.9,104.4,66.1,105.6z"/>
		<path class="st9" d="M69.7,87.4c-1.3-1.1-3.4-1.4-5.9-0.5c-5,1.8-9.9,7.5-10.8,12.8c-0.5,2.6,0.1,4.6,1.4,5.8l11,9.4
			c1.3,1.1,3.4,1.4,5.9,0.5c5-1.8,9.9-7.5,10.8-12.8c0.5-2.6-0.1-4.6-1.4-5.8L69.7,87.4z"/>
		<path class="st24" d="M60.3,106c-2.5,0.9-4.6,0.6-5.9-0.5s-1.9-3.2-1.4-5.8c1-5.2,5.8-11,10.8-12.8c2.5-0.9,4.6-0.6,5.9,0.5
			s1.9,3.1,1.4,5.8C70.2,98.4,65.4,104.2,60.3,106z"/>
		<path class="st13" d="M60.9,105.7l11,9.4c0.3-0.1,0.7-0.3,1-0.5l-11-9.4C61.5,105.4,61.2,105.6,60.9,105.7z M64.2,103.8l11.1,9.4
			c0.3-0.2,0.5-0.4,0.8-0.7l-11-9.4C64.7,103.4,64.5,103.6,64.2,103.8z M57.3,106.5l11,9.4c0.5,0,1,0,1.5-0.1l-11-9.4
			C58.3,106.5,57.8,106.5,57.3,106.5z M70.7,95l11,9.4c0.1-0.4,0.2-0.7,0.3-1.1l-11-9.4C70.9,94.3,70.8,94.6,70.7,95z M71.3,91.8
			l11,9.4c0-0.5,0-1-0.1-1.4l-11-9.3C71.3,90.8,71.3,91.3,71.3,91.8L71.3,91.8z M69.1,98.4l11,9.4c0.2-0.3,0.4-0.6,0.5-0.9l-11-9.4
			C69.4,97.8,69.3,98.1,69.1,98.4L69.1,98.4z M66.9,101.3l11.1,9.4l0.7-0.8l-11.1-9.4C67.4,100.8,67.2,101,66.9,101.3L66.9,101.3z"
			/>
		<rect x="193.5" y="49" transform="matrix(0.5 -0.866 0.866 0.5 51.4686 199.4019)" class="st14" width="9.9" height="12.2"/>
		<path class="st9" d="M208.9,55.8l-17.7-10.1c-0.9-0.5-1.2-1.6-0.7-2.5l5.4-9.5c0.5-0.9,1.6-1.2,2.5-0.7l17.7,10.1
			c0.9,0.5,1.2,1.6,0.7,2.5l-5.4,9.5C210.9,56,209.8,56.3,208.9,55.8z"/>
		<rect x="200.4" y="45.9" transform="matrix(0.5 -0.866 0.866 0.5 63.6485 203.0525)" class="st13" width="14.5" height="1"/>
		<path class="st13" d="M217.4,43.7l-7.2,12.4c-0.2,0-0.3-0.1-0.4-0.2l-0.5-0.3l7.2-12.6l0.5,0.3C217.1,43.5,217.2,43.6,217.4,43.7z
			"/>
		<rect x="203.6" y="47.7" transform="matrix(0.5 -0.866 0.866 0.5 63.6499 206.6862)" class="st13" width="14.5" height="1"/>
		<path class="st13" d="M191.7,45.4l7.1-12.4c0.2,0,0.4,0.1,0.6,0.2l0.4,0.2L192.5,46l-0.4-0.2C192,45.7,191.8,45.6,191.7,45.4z"/>
		<rect x="197.2" y="44" transform="matrix(0.5 -0.866 0.866 0.5 63.6465 199.3289)" class="st13" width="14.5" height="1"/>
		<rect x="191" y="40.4" transform="matrix(0.5 -0.866 0.866 0.5 63.6405 192.1239)" class="st13" width="14.5" height="1"/>
		<rect x="194.1" y="42.2" transform="matrix(0.5 -0.866 0.866 0.5 63.6455 195.7439)" class="st13" width="14.5" height="1"/>
	</g>
</g>
<g id="freepik--Calendar--inject-2" class="st1">
	<g id="freepik--calendar--inject-2" class="st3">
		<path class="st9" d="M34,404c-0.9-0.6-1.3-1.6-1.1-2.6l25.8-114.1c0.3-1.1,1-2.1,2-2.7L214.1,196c0.9-0.5,2.1-0.5,3.1-0.1
			c0.9,0.6,1.3,1.6,1.1,2.6l-25.8,114.1c-0.3,1.1-1,2.1-2,2.7L37,403.9C36.1,404.4,35,404.4,34,404z"/>
		<path class="st25" d="M34,404c-0.9-0.6-1.3-1.6-1.1-2.6l25.8-114.1c0.3-1.1,1-2.1,2-2.7L214.1,196c0.9-0.5,2.1-0.5,3.1-0.1
			c0.9,0.6,1.3,1.6,1.1,2.6l-25.8,114.1c-0.3,1.1-1,2.1-2,2.7L37,403.9C36.1,404.4,35,404.4,34,404z"/>
		<path class="st9" d="M61.6,288.9L35.9,403.1c-0.2,1,0.3,1.4,1.2,0.9l153.4-88.6c1-0.6,1.7-1.6,2-2.7l25.8-114.1
			c0.2-1-0.3-1.4-1.2-0.9L63.6,286.3C62.7,286.9,62,287.8,61.6,288.9z"/>
		<path class="st21" d="M61.6,288.9L35.9,403.1c-0.2,1,0.3,1.4,1.2,0.9l153.4-88.6c1-0.6,1.7-1.6,2-2.7l25.8-114.1
			c0.2-1-0.3-1.4-1.2-0.9L63.6,286.3C62.7,286.9,62,287.8,61.6,288.9z"/>
		<path class="st26" d="M61.6,288.9L35.9,403.1c-0.2,1,0.3,1.4,1.2,0.9l153.4-88.6c1-0.6,1.7-1.6,2-2.7l25.8-114.1
			c0.2-1-0.3-1.4-1.2-0.9L63.6,286.3C62.7,286.9,62,287.8,61.6,288.9z"/>
		<path class="st9" d="M220.1,197.6c-1-0.5-2.1-0.5-3.1,0.1L63.6,286.3c-0.9,0.6-1.4,1.7-1.3,2.7l20.2,141.3
			c0.2,1.1,0.8,2.1,1.7,2.7c1,0.5,2.1,0.4,3.1-0.1l153.4-88.6c0.9-0.6,1.4-1.6,1.3-2.7l-20.2-141.4
			C221.6,199.2,221,198.3,220.1,197.6z"/>
		<path class="st25" d="M220.1,197.6c-1-0.5-2.1-0.5-3.1,0.1L63.6,286.3c-0.9,0.6-1.4,1.7-1.3,2.7l20.2,141.3
			c0.2,1.1,0.8,2.1,1.7,2.7c1,0.5,2.1,0.4,3.1-0.1l153.4-88.6c0.9-0.6,1.4-1.6,1.3-2.7l-20.2-141.4
			C221.6,199.2,221,198.3,220.1,197.6z"/>
		<path class="st9" d="M65.2,290.7L85.4,432c0,0.6,0.5,1.1,1.2,1.1c0.2,0,0.5-0.1,0.7-0.2l153.4-88.6c0.9-0.6,1.4-1.6,1.3-2.7
			l-20.2-141.3c0-0.6-0.5-1.1-1.2-1.1c-0.2,0-0.5,0.1-0.7,0.2L66.6,288C65.7,288.6,65.2,289.6,65.2,290.7z"/>
		<path class="st27" d="M65.2,290.7L85.4,432c0,0.6,0.5,1.1,1.2,1.1c0.2,0,0.5-0.1,0.7-0.2l153.4-88.6c0.9-0.6,1.4-1.6,1.3-2.7
			l-20.2-141.3c0-0.6-0.5-1.1-1.2-1.1c-0.2,0-0.5,0.1-0.7,0.2L66.6,288C65.7,288.6,65.2,289.6,65.2,290.7z"/>
		<path class="st9" d="M76.4,388l-18,10.4l0,0c-0.4-0.1-0.7-0.1-1.1,0l-21.2,4.1H36l39.2-22.7L76.4,388z"/>
		<path class="st28" d="M76.4,388l-18,10.4l0,0c-0.4-0.1-0.7-0.1-1.1,0l-21.2,4.1H36l39.2-22.7L76.4,388z"/>
		<path class="st13" d="M76.4,388l-18,10.4l0,0c-0.4-0.1-0.7-0.1-1.1,0l-21.2,4.1H36l39.2-22.7L76.4,388z"/>
		<path class="st9" d="M82.3,429.2l-22.1-29.8c-0.4-0.5-1-0.9-1.7-1L76.4,388L82.3,429.2z"/>
		<path class="st21" d="M82.3,429.2l-22.1-29.8c-0.4-0.5-1-0.9-1.7-1L76.4,388L82.3,429.2z"/>
		<path class="st5" d="M82.3,429.2l-22.1-29.8c-0.4-0.5-1-0.9-1.7-1L76.4,388L82.3,429.2z"/>
		<path class="st9" d="M81.6,430.6l-21.4-27.8c-0.7-0.8-1.8-1.3-2.9-1.2l-20,2.9c-1.1,0.1-2.3-0.1-3.3-0.6c-0.8-0.5-0.7-1,0.3-1.2
			l23-4.4c1.1-0.2,2.2,0.3,2.9,1.1l24.4,32.9c0.6,0.8,0.4,1.1-0.4,0.6C83.2,432.3,82.3,431.5,81.6,430.6z"/>
		<path class="st25" d="M81.6,430.6l-21.4-27.8c-0.7-0.8-1.8-1.3-2.9-1.2l-20,2.9c-1.1,0.1-2.3-0.1-3.3-0.6c-0.8-0.5-0.7-1,0.3-1.2
			l23-4.4c1.1-0.2,2.2,0.3,2.9,1.1l24.4,32.9c0.6,0.8,0.4,1.1-0.4,0.6C83.2,432.3,82.3,431.5,81.6,430.6z"/>
		<path class="st9" d="M218.2,198c0-0.8-0.4-1.6-1.1-2.1c-1-0.5-2.1-0.4-3.1,0.1L60.7,284.5c-0.5,0.3-0.9,0.7-1.2,1.1
			c-0.4,0.5-0.6,1-0.8,1.6L55,303.4l3,1.7l156.5-90.4l3.6-16.1C218.3,198.4,218.3,198.2,218.2,198L218.2,198z"/>
		<path class="st29" d="M218.2,198.6c0.2-1-0.3-1.4-1.2-0.9L63.6,286.3c-1,0.6-1.7,1.6-2,2.7L58,305l156.5-90.4L218.2,198.6z"/>
		<path class="st11" d="M62.4,287.4c-0.4,0.5-0.6,1-0.8,1.6L58,305l-3-1.7l3.6-16.1c0.2-0.6,0.4-1.1,0.8-1.6L62.4,287.4z"/>
		<path class="st13" d="M218.2,198c-0.1-0.6-0.6-0.7-1.2-0.3L63.6,286.2c-0.5,0.3-0.9,0.7-1.2,1.1l-3-1.7c0.3-0.4,0.7-0.8,1.2-1.1
			L214.1,196c1-0.5,2.1-0.5,3.1-0.1C217.8,196.4,218.2,197.2,218.2,198z"/>
		<path class="st9" d="M222,201.6L222,201.6l-0.2-1.4c0-0.1,0-0.1,0-0.2c0,0,0,0,0-0.1l0,0c-0.2-1-0.8-1.8-1.7-2.4
			c-1-0.5-2.1-0.5-3.1,0.1L63.6,286.3c-0.5,0.3-0.8,0.7-1.1,1.2l0,0c-0.2,0.5-0.3,1-0.3,1.5l2.9,20.2l3,1.7l156.6-90.4L222,201.6z"
			/>
		<path class="st13" d="M224.7,220.6L68.1,310.9l-2.9-20.3c-0.1-0.5,0-1,0.3-1.5c0.2-0.5,0.6-0.9,1-1.2L220,199.4
			c0.5-0.4,1.2-0.3,1.6,0.2c0.1,0.1,0.2,0.2,0.2,0.4v0.1c0,0,0,0,0,0.1c0,0.1,0,0.1,0.1,0.2l0.2,1.4l0,0L224.7,220.6z"/>
		<path class="st11" d="M68.1,310.9l-3-1.7L62.3,289c-0.1-0.5,0-1,0.3-1.5l3,1.7c-0.2,0.5-0.3,1-0.3,1.5L68.1,310.9z"/>
		<path class="st30" d="M221.7,200c-0.1-0.6-0.7-1-1.3-0.9c-0.2,0-0.3,0.1-0.5,0.2L66.6,288c-0.4,0.3-0.8,0.7-1,1.2l-3-1.7
			c0.2-0.5,0.6-0.9,1-1.2L217,197.7c0.9-0.5,2.1-0.5,3.1-0.1C220.9,198.2,221.5,199,221.7,200z"/>
		<g class="st31">
			<path d="M79.3,290.8c-0.1-2,0.8-3.8,2.5-4.9c1.6-0.9,3.2-0.3,3.4,1.4c0.1,2-0.8,3.8-2.5,4.9C81.1,293.2,79.6,292.6,79.3,290.8z"
				/>
			<path d="M100,278.9c-0.1-2,0.8-3.8,2.5-4.9c1.6-0.9,3.2-0.3,3.4,1.5c0.1,2-0.8,3.8-2.5,4.9C101.8,281.3,100.3,280.6,100,278.9z"
				/>
			<path d="M120.7,267c-0.1-2,0.8-3.8,2.5-4.9c1.6-0.9,3.2-0.3,3.4,1.5c0.1,2-0.8,3.8-2.5,4.9C122.4,269.4,120.9,268.7,120.7,267z"
				/>
			<path d="M162,243.1c-0.1-2,0.8-3.8,2.5-4.9c1.6-0.9,3.2-0.3,3.4,1.4c0.1,2-0.8,3.8-2.5,4.9C163.8,245.5,162.3,244.8,162,243.1z"
				/>
			<path d="M182.7,231.1c-0.1-2,0.8-3.8,2.5-4.9c1.6-0.9,3.1-0.3,3.4,1.4c0.1,2-0.8,3.8-2.5,4.9C184.5,233.5,183,232.9,182.7,231.1z
				"/>
			<path d="M203.4,219.2c-0.1-2,0.8-3.8,2.5-4.9c1.6-0.9,3.1-0.3,3.4,1.4c0.1,2-0.8,3.8-2.5,4.9C205.1,221.6,203.6,221,203.4,219.2z
				"/>
		</g>
		<path class="st12" d="M85.6,284.6c0,0.6,0,1.2-0.2,1.8c-0.1,0.3-0.1,0.6-0.2,0.9c-0.4,1.4-1.3,2.6-2.5,3.3
			c-0.8,0.5-1.7,0.7-2.6,0.7c-0.2,0-0.5,0-0.7,0c0-0.1-0.1-0.3-0.1-0.4c-0.1-0.8,0.1-1.6,0.4-2.4c0.6,0.1,1.1,0,1.6-0.3
			c0.8-0.6,1.3-1.5,1.4-2.6c0,0,0-0.1,0-0.1c0-0.3,0-0.6,0-0.9c-0.1-2.8-1.1-5.5-2.8-7.8c-0.6-0.8-1.3-1.6-2-2.3
			c-0.6-0.6-1.3-1.1-2-1.5c-1.5-0.9-2.9-1-3.8-0.5s-1.5,1.8-1.5,3.6c0,0.8,0.1,1.6,0.3,2.4l-2.3,1.4v-0.2c-0.4-1.2-0.5-2.5-0.6-3.7
			c0-2.8,1-4.9,2.9-6s4.2-0.9,6.6,0.5c1.1,0.7,2.2,1.5,3.1,2.5c0.7,0.7,1.3,1.5,1.9,2.3C84.4,278.1,85.4,281.3,85.6,284.6z"/>
		<path class="st12" d="M106.3,272.7c0,0.6,0,1.2-0.2,1.8c-0.1,0.3-0.1,0.6-0.2,0.9c-0.4,1.4-1.3,2.5-2.5,3.3
			c-0.8,0.5-1.7,0.7-2.6,0.7c-0.2,0-0.5,0-0.7,0c0-0.1-0.1-0.3-0.1-0.4c-0.1-0.8,0-1.6,0.4-2.4c0.6,0.1,1.1,0,1.6-0.3
			c0.8-0.6,1.4-1.6,1.4-2.6c0,0,0-0.1,0-0.1c0-0.3,0-0.6,0-0.9c-0.2-3.8-1.9-7.5-4.7-10.1c-0.6-0.6-1.3-1.1-2-1.5
			c-1.5-0.9-2.9-1-3.8-0.5s-1.5,1.8-1.5,3.6c0,0.8,0.1,1.6,0.3,2.4l-2.4,1.4v-0.2c-0.4-1.2-0.5-2.4-0.6-3.7c0-2.8,1-4.9,2.9-6
			s4.2-0.9,6.6,0.5c1.1,0.7,2.1,1.5,3,2.5c0.7,0.7,1.3,1.5,1.9,2.3C105,266.1,106.1,269.3,106.3,272.7z"/>
		<path class="st12" d="M126.9,260.7c0,0.6,0,1.2-0.2,1.8c-0.1,0.3-0.1,0.6-0.2,0.9c-0.4,1.4-1.3,2.5-2.5,3.3
			c-0.8,0.5-1.7,0.7-2.6,0.7c-0.2,0-0.5,0-0.7,0c0-0.1-0.1-0.3-0.1-0.4c-0.1-0.8,0-1.6,0.4-2.4c0.6,0.1,1.1,0,1.6-0.3
			c0.8-0.6,1.4-1.6,1.4-2.6c0,0,0-0.1,0-0.1c0-0.3,0-0.6,0-0.9c-0.1-2.8-1.1-5.5-2.8-7.8c-0.6-0.8-1.3-1.6-2-2.3
			c-0.6-0.6-1.3-1.1-2-1.5c-1.5-0.9-2.9-1-3.8-0.5s-1.5,1.8-1.5,3.6c0,0.8,0.1,1.6,0.3,2.4l-2.3,1.4v-0.2c-0.3-1.2-0.5-2.4-0.5-3.7
			c0-2.8,1-4.9,2.9-6s4.2-0.9,6.6,0.5c1.1,0.7,2.2,1.5,3.1,2.4c0.7,0.7,1.3,1.5,1.9,2.3C125.7,254.2,126.8,257.4,126.9,260.7z"/>
		<path class="st12" d="M168.3,236.9c0,0.6,0,1.2-0.1,1.8c-0.1,0.3-0.1,0.6-0.2,0.9c-0.4,1.4-1.3,2.5-2.5,3.3
			c-0.8,0.5-1.7,0.7-2.6,0.7c-0.2,0-0.5,0-0.7-0.1c0-0.1-0.1-0.3-0.1-0.4c-0.1-0.8,0-1.6,0.4-2.3c0.6,0.1,1.2,0,1.7-0.3
			c0.8-0.6,1.4-1.6,1.4-2.6c0,0,0-0.1,0-0.1c0-0.3,0-0.6,0-0.9c-0.2-3.9-1.9-7.5-4.8-10.1c-0.6-0.6-1.2-1-1.9-1.4
			c-1.5-0.9-2.9-1.1-3.8-0.5s-1.5,1.8-1.5,3.6c0,0.8,0.1,1.6,0.3,2.4l-2.5,1.4v-0.1c-0.3-1.2-0.5-2.5-0.5-3.7c0-2.8,1-4.9,2.9-6
			s4.2-0.9,6.6,0.5c1.1,0.7,2.1,1.5,3,2.4c0.7,0.7,1.3,1.5,1.9,2.3C167,230.3,168.1,233.6,168.3,236.9z"/>
		<path class="st12" d="M189,224.9c0,0.6-0.1,1.2-0.2,1.8c-0.1,0.3-0.1,0.6-0.2,0.9c-0.4,1.4-1.3,2.5-2.5,3.3
			c-0.8,0.5-1.7,0.7-2.6,0.7c-0.2,0-0.5,0-0.7,0c0-0.1-0.1-0.3-0.1-0.4c-0.1-0.8,0-1.6,0.4-2.3c0.6,0.1,1.2,0,1.7-0.3
			c0.8-0.6,1.4-1.6,1.4-2.6c0,0,0-0.1,0-0.1c0-0.2,0-0.5,0-0.9c-0.1-2.8-1.1-5.6-2.8-7.9c-0.6-0.8-1.3-1.6-2-2.3
			c-0.6-0.6-1.2-1-1.9-1.4c-1.5-0.9-2.9-1.1-3.8-0.5s-1.5,1.8-1.5,3.6c0,0.8,0.1,1.6,0.3,2.4l-2.4,1.4v-0.1
			c-0.3-1.2-0.5-2.4-0.6-3.7c0-2.8,1-4.9,2.9-6s4.2-0.9,6.6,0.5c1.1,0.7,2.1,1.5,3,2.4l0,0c0.7,0.7,1.3,1.5,1.9,2.3
			C187.7,218.4,188.9,221.6,189,224.9z"/>
		<path class="st12" d="M209.6,213c0,0.6-0.1,1.2-0.2,1.8c-0.1,0.3-0.1,0.6-0.2,0.9c-0.4,1.4-1.2,2.6-2.5,3.3
			c-0.8,0.5-1.7,0.7-2.6,0.7c-0.2,0-0.5,0-0.7,0c0-0.1-0.1-0.3-0.1-0.4c-0.1-0.8,0-1.6,0.4-2.3c0.6,0.1,1.2,0,1.7-0.3
			c0.8-0.6,1.4-1.6,1.4-2.6c0,0,0-0.1,0-0.1c0-0.3,0.1-0.6,0.1-0.9c-0.1-2.8-1.1-5.6-2.8-7.9c-0.6-0.8-1.3-1.6-2-2.3
			c-0.6-0.6-1.2-1.1-1.9-1.5c-1.5-0.9-2.9-1.1-3.8-0.5s-1.5,1.8-1.5,3.6c0,0.8,0.1,1.6,0.3,2.4l-2.5,1.4v-0.1
			c-0.3-1.2-0.5-2.4-0.6-3.7c0-2.8,1-4.9,2.9-6s4.2-0.9,6.6,0.5c1.1,0.7,2.1,1.5,3,2.4c0.7,0.7,1.3,1.5,1.9,2.3
			C208.4,206.5,209.5,209.7,209.6,213z"/>
		<polygon class="st9" points="71.6,334.7 228.1,244.4 224.7,220.6 68.1,310.9 		"/>
		<g class="st32">
			<polygon class="st18" points="71.6,334.7 228.1,244.4 224.7,220.6 68.1,310.9 			"/>
		</g>
		<path class="st9" d="M83.9,340.5c0.2,1.3,1.4,1.8,2.7,1l11.7-6.8c1.3-0.8,2.1-2.2,2-3.8c-0.2-1.3-1.4-1.8-2.7-1L86,336.8
			C84.7,337.5,83.8,339,83.9,340.5z"/>
		<path class="st9" d="M103.7,329.1c0.2,1.3,1.4,1.8,2.7,1l11.8-6.8c1.3-0.8,2.1-2.2,2-3.8c-0.2-1.3-1.4-1.8-2.7-1l-11.7,6.8
			C104.4,326.1,103.6,327.6,103.7,329.1z"/>
		<path class="st9" d="M123.5,317.6c0.2,1.3,1.4,1.8,2.7,1l11.8-6.8c1.3-0.8,2.1-2.2,2.1-3.8c-0.2-1.3-1.4-1.8-2.7-1l-11.8,6.8
			C124.2,314.7,123.5,316.1,123.5,317.6z"/>
		<path class="st9" d="M143.3,306.2c0.2,1.3,1.4,1.8,2.7,1l11.7-6.8c1.3-0.8,2.1-2.2,2.1-3.8c-0.2-1.3-1.4-1.8-2.7-1l-11.7,6.8
			C144.1,303.2,143.3,304.7,143.3,306.2z"/>
		<path class="st9" d="M163.1,294.8c0.2,1.3,1.4,1.8,2.7,1l11.8-6.8c1.3-0.8,2.1-2.2,2-3.8c-0.2-1.3-1.4-1.8-2.7-1l-11.7,6.8
			C163.9,291.8,163.1,293.2,163.1,294.8z"/>
		<path class="st9" d="M183,283.3c0.2,1.3,1.4,1.8,2.7,1l11.8-6.8c1.3-0.8,2.1-2.2,2-3.8c-0.2-1.3-1.4-1.8-2.7-1l-11.8,6.8
			C183.7,280.3,182.9,281.8,183,283.3z"/>
		<path class="st9" d="M202.8,271.9c0.2,1.3,1.4,1.8,2.7,1l11.7-6.8c1.3-0.8,2.1-2.2,2.1-3.8c-0.2-1.3-1.4-1.8-2.7-1l-11.7,6.8
			C203.5,268.9,202.7,270.3,202.8,271.9z"/>
		<g class="st33">
			<path class="st9" d="M232.3,340.7c-0.3,0-0.6-0.2-0.7-0.5l-9.6-66.8c0-0.3,0.2-0.5,0.4-0.5c0,0,0,0,0.1,0c0.3,0,0.6,0.2,0.7,0.5
				l9.6,66.8C232.9,340.4,232.7,340.6,232.3,340.7C232.4,340.7,232.4,340.7,232.3,340.7z"/>
			<path class="st9" d="M212.5,352.1c-0.3,0-0.6-0.2-0.7-0.5l-9.6-66.8c0-0.3,0.2-0.5,0.5-0.5c0,0,0,0,0.1,0c0.3,0,0.6,0.2,0.7,0.5
				l9.6,66.8C213,351.8,212.8,352.1,212.5,352.1C212.5,352.1,212.5,352.1,212.5,352.1z"/>
			<path class="st9" d="M192.7,363.5c-0.3,0-0.6-0.2-0.7-0.5l-9.6-66.8c0-0.3,0.2-0.5,0.4-0.5c0,0,0,0,0.1,0c0.3,0,0.6,0.2,0.7,0.5
				l9.6,66.8C193.2,363.3,193,363.5,192.7,363.5C192.7,363.6,192.7,363.6,192.7,363.5z"/>
			<path class="st9" d="M172.9,375c-0.3,0-0.6-0.2-0.7-0.5l-9.6-66.8c0-0.3,0.2-0.5,0.5-0.5c0,0,0,0,0.1,0c0.3,0,0.6,0.2,0.7,0.5
				l9.6,66.8C173.4,374.7,173.2,375,172.9,375C172.9,375,172.9,375,172.9,375z"/>
			<path class="st9" d="M153,386.4c-0.3,0-0.6-0.2-0.7-0.5l-9.6-66.8c0-0.3,0.2-0.5,0.4-0.5c0,0,0,0,0.1,0c0.3,0,0.6,0.2,0.7,0.5
				l9.6,66.8C153.5,386.2,153.3,386.4,153,386.4C153,386.4,153,386.4,153,386.4z"/>
			<path class="st9" d="M133.2,397.9c-0.3,0-0.6-0.2-0.7-0.5l-9.6-66.8c0-0.3,0.2-0.5,0.4-0.5c0,0,0,0,0.1,0c0.3,0,0.6,0.2,0.7,0.5
				l9.6,66.8C133.8,397.6,133.6,397.9,133.2,397.9C133.3,397.9,133.3,397.9,133.2,397.9z"/>
			<path class="st9" d="M113.4,409.3c-0.3,0-0.6-0.2-0.7-0.5l-9.6-66.8c0-0.3,0.2-0.5,0.4-0.5c0,0,0,0,0.1,0c0.3,0,0.6,0.2,0.7,0.5
				l9.6,66.8C113.9,409.1,113.7,409.3,113.4,409.3C113.4,409.3,113.4,409.3,113.4,409.3z"/>
			<path class="st9" d="M93.6,420.8c-0.3,0-0.6-0.2-0.7-0.5l-9.6-66.8c0-0.3,0.2-0.5,0.4-0.5c0,0,0,0,0.1,0c0.3,0,0.6,0.2,0.7,0.5
				l9.6,66.8C94.1,420.5,93.9,420.8,93.6,420.8C93.6,420.8,93.6,420.8,93.6,420.8z"/>
			<path class="st9" d="M86.4,370.6c-0.2,0-0.4-0.1-0.6-0.2c-0.2-0.2-0.2-0.5,0-0.6c0,0,0.1,0,0.1-0.1l138.8-80.1
				c0.3-0.1,0.6-0.1,0.8,0.1c0.2,0.2,0.2,0.5,0,0.6c0,0-0.1,0.1-0.1,0.1L86.7,370.6C86.6,370.6,86.5,370.6,86.4,370.6z"/>
			<path class="st9" d="M88.8,387.4c-0.2,0-0.4-0.1-0.6-0.2c-0.2-0.2-0.2-0.5,0-0.6c0,0,0.1-0.1,0.1-0.1l138.8-80.1
				c0.3-0.2,0.6-0.1,0.8,0.1c0.2,0.2,0.2,0.5,0,0.6c0,0-0.1,0-0.1,0.1L89.1,387.3C89,387.3,88.9,387.3,88.8,387.4z"/>
			<path class="st9" d="M91.2,404.1c-0.2,0-0.4-0.1-0.6-0.2c-0.2-0.2-0.2-0.5,0-0.6c0,0,0.1-0.1,0.1-0.1L229.5,323
				c0.3-0.2,0.6-0.1,0.8,0.1c0.2,0.2,0.2,0.5,0,0.6c0,0-0.1,0-0.1,0.1L91.5,404C91.4,404,91.3,404.1,91.2,404.1z"/>
			<path class="st9" d="M93.6,420.8c-0.1,0-0.2,0-0.3-0.1c-0.2-0.1-0.3-0.2-0.4-0.4l-9.6-66.8c0-0.2,0.1-0.4,0.2-0.5l138.8-80.1
				c0.2-0.1,0.4-0.1,0.6,0c0.2,0.1,0.3,0.2,0.4,0.4l9.6,66.8c0,0.2-0.1,0.4-0.2,0.5L93.9,420.7C93.8,420.7,93.7,420.8,93.6,420.8z
				 M84.6,353.7l9.4,65.7l137.6-79.5l-9.4-65.6L84.6,353.7z"/>
		</g>
		<g class="st33">
			<path d="M232.3,340.7c-0.3,0-0.6-0.2-0.7-0.5l-9.6-66.8c0-0.3,0.2-0.5,0.4-0.5c0,0,0,0,0.1,0c0.3,0,0.6,0.2,0.7,0.5l9.6,66.8
				C232.9,340.4,232.7,340.6,232.3,340.7C232.4,340.7,232.4,340.7,232.3,340.7z"/>
			<path d="M212.5,352.1c-0.3,0-0.6-0.2-0.7-0.5l-9.6-66.8c0-0.3,0.2-0.5,0.5-0.5c0,0,0,0,0.1,0c0.3,0,0.6,0.2,0.7,0.5l9.6,66.8
				C213,351.8,212.8,352.1,212.5,352.1C212.5,352.1,212.5,352.1,212.5,352.1z"/>
			<path d="M192.7,363.5c-0.3,0-0.6-0.2-0.7-0.5l-9.6-66.8c0-0.3,0.2-0.5,0.4-0.5c0,0,0,0,0.1,0c0.3,0,0.6,0.2,0.7,0.5l9.6,66.8
				C193.2,363.3,193,363.5,192.7,363.5C192.7,363.6,192.7,363.6,192.7,363.5z"/>
			<path d="M172.9,375c-0.3,0-0.6-0.2-0.7-0.5l-9.6-66.8c0-0.3,0.2-0.5,0.5-0.5c0,0,0,0,0.1,0c0.3,0,0.6,0.2,0.7,0.5l9.6,66.8
				C173.4,374.7,173.2,375,172.9,375C172.9,375,172.9,375,172.9,375z"/>
			<path d="M153,386.4c-0.3,0-0.6-0.2-0.7-0.5l-9.6-66.8c0-0.3,0.2-0.5,0.4-0.5c0,0,0,0,0.1,0c0.3,0,0.6,0.2,0.7,0.5l9.6,66.8
				C153.5,386.2,153.3,386.4,153,386.4C153,386.4,153,386.4,153,386.4z"/>
			<path d="M133.2,397.9c-0.3,0-0.6-0.2-0.7-0.5l-9.6-66.8c0-0.3,0.2-0.5,0.4-0.5c0,0,0,0,0.1,0c0.3,0,0.6,0.2,0.7,0.5l9.6,66.8
				C133.8,397.6,133.6,397.9,133.2,397.9C133.3,397.9,133.3,397.9,133.2,397.9z"/>
			<path d="M113.4,409.3c-0.3,0-0.6-0.2-0.7-0.5l-9.6-66.8c0-0.3,0.2-0.5,0.4-0.5c0,0,0,0,0.1,0c0.3,0,0.6,0.2,0.7,0.5l9.6,66.8
				C113.9,409.1,113.7,409.3,113.4,409.3C113.4,409.3,113.4,409.3,113.4,409.3z"/>
			<path d="M93.6,420.8c-0.3,0-0.6-0.2-0.7-0.5l-9.6-66.8c0-0.3,0.2-0.5,0.4-0.5c0,0,0,0,0.1,0c0.3,0,0.6,0.2,0.7,0.5l9.6,66.8
				C94.1,420.5,93.9,420.8,93.6,420.8C93.6,420.8,93.6,420.8,93.6,420.8z"/>
			<path d="M86.4,370.6c-0.2,0-0.4-0.1-0.6-0.2c-0.2-0.2-0.2-0.5,0-0.6c0,0,0.1,0,0.1-0.1l138.8-80.1c0.3-0.1,0.6-0.1,0.8,0.1
				c0.2,0.2,0.2,0.5,0,0.6c0,0-0.1,0.1-0.1,0.1L86.7,370.6C86.6,370.6,86.5,370.6,86.4,370.6z"/>
			<path d="M88.8,387.4c-0.2,0-0.4-0.1-0.6-0.2c-0.2-0.2-0.2-0.5,0-0.6c0,0,0.1-0.1,0.1-0.1l138.8-80.1c0.3-0.2,0.6-0.1,0.8,0.1
				c0.2,0.2,0.2,0.5,0,0.6c0,0-0.1,0-0.1,0.1L89.1,387.3C89,387.3,88.9,387.3,88.8,387.4z"/>
			<path d="M91.2,404.1c-0.2,0-0.4-0.1-0.6-0.2c-0.2-0.2-0.2-0.5,0-0.6c0,0,0.1-0.1,0.1-0.1L229.5,323c0.3-0.2,0.6-0.1,0.8,0.1
				c0.2,0.2,0.2,0.5,0,0.6c0,0-0.1,0-0.1,0.1L91.5,404C91.4,404,91.3,404.1,91.2,404.1z"/>
			<path d="M93.6,420.8c-0.1,0-0.2,0-0.3-0.1c-0.2-0.1-0.3-0.2-0.4-0.4l-9.6-66.8c0-0.2,0.1-0.4,0.2-0.5l138.8-80.1
				c0.2-0.1,0.4-0.1,0.6,0c0.2,0.1,0.3,0.2,0.4,0.4l9.6,66.8c0,0.2-0.1,0.4-0.2,0.5L93.9,420.7C93.8,420.7,93.7,420.8,93.6,420.8z
				 M84.6,353.7l9.4,65.7l137.6-79.5l-9.4-65.6L84.6,353.7z"/>
		</g>
		<path class="st14" d="M109.8,360.9c4.6,0.9,9.3,1.7,13.9,2.5l1.7,0.3c0.8,0.1,1.1-1,0.3-1.1c-4.4-0.8-8.8-1.5-13.2-2.2L110,360
			C109.3,359.9,109,360.8,109.8,360.9L109.8,360.9z"/>
		<path class="st14" d="M123,352.7c-0.6,0.6-1.1,1.3-1.5,2l-2.7,4.1c-2,3-4,6-5.9,9c-0.6,0.9-1.3,1.8-1.8,2.8
			c-0.1,0.2-0.1,0.4,0.1,0.6l0.1,0.1l-0.1-0.5l0,0c-0.2,0.3,0.3,0.8,0.6,0.5c0,0,0.3-0.1,0.4-0.2l0.1-0.2l0.3-0.5l1-1.5l2.8-4.3
			c2-3.1,4-6.2,6-9.3c0.5-0.7,0.9-1.4,1.2-2.2C123.7,352.8,123.3,352.4,123,352.7L123,352.7z"/>
		<path class="st14" d="M129.2,349c4.6,0.9,9.3,1.7,13.9,2.5l1.7,0.3c0.8,0.1,1.1-1,0.3-1.1c-4.4-0.8-8.8-1.5-13.2-2.2l-2.5-0.4
			C128.7,348,128.5,348.8,129.2,349z"/>
		<path class="st14" d="M142.4,340.8c-0.6,0.6-1.1,1.3-1.5,2l-2.7,4c-2,3-3.9,6-5.9,9c-0.6,0.9-1.3,1.8-1.8,2.8
			c-0.1,0.2-0.1,0.4,0.1,0.6l0.1,0.1l-0.1-0.5l0,0c-0.2,0.3,0.3,0.8,0.6,0.5c0,0,0.3-0.1,0.4-0.2c0-0.1,0.1-0.1,0.1-0.2l0.3-0.5
			l1-1.5l2.8-4.3c2-3.1,4-6.2,6-9.3c0.5-0.7,0.9-1.4,1.2-2.2C143.1,340.8,142.7,340.5,142.4,340.8L142.4,340.8z"/>
		<path class="st14" d="M149.3,337.5c4.6,0.9,9.3,1.7,13.9,2.5l1.7,0.3c0.8,0.1,1.1-1,0.3-1.1c-4.4-0.8-8.8-1.5-13.2-2.2
			c-0.8-0.1-1.6-0.3-2.5-0.4C148.8,336.5,148.5,337.4,149.3,337.5L149.3,337.5z"/>
		<path class="st14" d="M162.5,329.3c-0.6,0.6-1.1,1.3-1.5,2l-2.7,4.1c-2,3-4,6-5.9,9c-0.6,0.9-1.3,1.9-1.8,2.8
			c-0.1,0.2-0.1,0.4,0.1,0.6l0.1,0.1l-0.1-0.5l0,0c-0.2,0.3,0.3,0.8,0.6,0.5c0,0.1,0.3-0.1,0.4-0.2c0-0.1,0.1-0.1,0.1-0.2l0.3-0.5
			l1-1.5l2.8-4.3c2-3.1,4-6.2,6-9.3c0.5-0.7,0.9-1.4,1.2-2.2C163.1,329.5,162.7,329.1,162.5,329.3L162.5,329.3z"/>
		<path class="st14" d="M169.2,326c4.6,0.9,9.3,1.7,13.9,2.5l1.7,0.3c0.8,0.1,1.1-1,0.3-1.1c-4.4-0.8-8.8-1.5-13.2-2.2
			c-0.8-0.1-1.7-0.3-2.5-0.4S168.5,325.8,169.2,326L169.2,326z"/>
		<path class="st14" d="M182.4,317.8c-0.6,0.6-1.1,1.3-1.5,2l-2.7,4.1c-2,3-4,6-5.9,9c-0.6,0.9-1.3,1.9-1.8,2.8
			c-0.1,0.2-0.1,0.4,0.1,0.6l0.1,0.1l-0.1-0.5l0,0c-0.2,0.3,0.3,0.8,0.6,0.5c0,0.1,0.3-0.1,0.4-0.2c0-0.1,0.1-0.1,0.1-0.2l0.3-0.5
			l1-1.5l2.8-4.3c2-3.1,4-6.2,6-9.3c0.5-0.7,0.9-1.4,1.2-2.2C183.1,317.9,182.8,317.5,182.4,317.8L182.4,317.8z"/>
		<path class="st14" d="M189.1,314.5c4.6,0.9,9.3,1.7,13.9,2.5l1.7,0.3c0.8,0.1,1.1-1,0.3-1.1c-4.4-0.8-8.8-1.5-13.2-2.2
			c-0.8-0.1-1.7-0.3-2.5-0.4S188.3,314.4,189.1,314.5z"/>
		<path class="st14" d="M202.3,306.3c-0.6,0.6-1.1,1.3-1.5,2c-0.9,1.4-1.8,2.7-2.7,4.1c-2,3-3.9,6-5.9,9c-0.6,0.9-1.3,1.9-1.8,2.8
			c-0.1,0.2-0.1,0.4,0.1,0.6l0.1,0.1c0-0.1-0.1-0.3-0.1-0.5l0,0c-0.2,0.3,0.3,0.8,0.5,0.5c0,0.1,0.3-0.1,0.4-0.2
			c0-0.1,0.1-0.1,0.1-0.2l0.3-0.5l1-1.5l2.8-4.3c2-3.1,4-6.2,6-9.3c0.5-0.7,0.9-1.4,1.2-2.2C202.9,306.4,202.6,306,202.3,306.3
			L202.3,306.3z"/>
		<path class="st14" d="M112.4,376.3c4.6,0.9,9.3,1.7,13.9,2.5l1.7,0.3c0.8,0.1,1.1-1,0.3-1.1c-4.4-0.8-8.8-1.5-13.2-2.2
			c-0.8-0.1-1.7-0.3-2.5-0.4S111.7,376.2,112.4,376.3L112.4,376.3z"/>
		<path class="st14" d="M125.6,368.1c-0.6,0.6-1.1,1.3-1.5,2c-0.9,1.4-1.8,2.7-2.7,4.1c-2,3-3.9,6-5.9,9c-0.6,0.9-1.3,1.9-1.8,2.8
			c-0.1,0.2-0.1,0.4,0.1,0.6l0.1,0.1l-0.1-0.5l0,0c-0.2,0.3,0.3,0.8,0.5,0.5c0,0.1,0.3-0.1,0.4-0.2s0.1-0.1,0.1-0.2l0.3-0.5l1-1.5
			l2.8-4.3c2-3.1,4-6.2,6-9.3c0.5-0.7,0.9-1.4,1.2-2.2C126.3,368.2,125.9,367.8,125.6,368.1L125.6,368.1z"/>
		<path class="st9" d="M172.7,347.8c-1.2-1-2.6-1.6-4.1-1.8c-3-0.5-6.1,0.5-8.3,2.6c-0.3,0.3,0.3,0.8,0.6,0.6c2-1.7,4.6-2.5,7.2-2.3
			c1.3,0.1,2.5,0.5,3.5,1.3c1,0.8,1.5,2.1,1.3,3.4c-0.3,2.3-1.1,4.6-2.4,6.5c-1.3,2-2.9,3.7-4.7,5.1c-1.8,1.4-3.9,2.6-6.1,3.4
			c-2.2,0.8-5,1.5-7.3,0.5c-2.2-1-3.5-3.2-3.5-5.6c0-2.8,0.8-5.5,2.4-7.9c1.7-2.6,3.8-4.8,6.4-6.5c1.3-0.9,2.6-1.8,4-2.4
			c1.5-0.7,3.1-1.2,4.7-1.5c0.7-0.2-0.2-0.7-0.9-0.6c-1.4,0.2-2.7,0.5-3.9,1.1c-1.7,0.7-3.2,1.6-4.7,2.6c-2.6,1.7-4.9,4-6.6,6.6
			c-1.6,2.5-2.5,5.5-2.6,8.5c0,2.6,1.3,5,3.4,6.3c2.4,1.4,5.5,1.1,8.1,0.2c2.5-0.8,4.9-1.9,7-3.5c2.1-1.5,3.8-3.3,5.3-5.4
			c1.5-2.1,2.5-4.6,2.8-7.2C174.3,350.4,173.8,348.9,172.7,347.8z"/>
	</g>
</g>
<g id="freepik--Lines--inject-2" class="st1">
	<g id="freepik--lines--inject-2" class="st3">
		<polygon class="st6" points="310.2,346.9 320.8,352.7 331.3,358.6 352.2,370.5 373.1,382.7 383.5,388.9 393.8,395.1 383.2,389.3 
			372.7,383.4 351.7,371.4 330.9,359.3 320.5,353.1 		"/>
		<path class="st6" d="M327.2,371.5c2.4,1.2,4.7,2.5,7.1,3.8l7,3.9c4.7,2.6,9.3,5.3,13.9,7.9s9.2,5.4,13.8,8.1l6.9,4.1
			c2.3,1.4,4.6,2.8,6.8,4.2c-2.4-1.2-4.7-2.5-7.1-3.8l-7-3.9c-4.7-2.6-9.3-5.3-13.9-7.9s-9.2-5.4-13.8-8.1l-6.9-4.1
			C331.8,374.3,329.5,372.9,327.2,371.5z"/>
		<path class="st6" d="M284.1,308.2l-8.7-5.2c-5.8-3.4-11.6-6.8-17.4-10.2s-9-5.2-14.9-8.5l-6.2-3.5v0.7l5.9,3.5
			c5.8,3.5,9,5.3,14.8,8.7c5.8,3.4,11.7,6.7,17.6,10l8.8,4.9c3,1.6,5.9,3.3,8.9,4.8C289.9,311.7,287,310,284.1,308.2z"/>
		<path class="st6" d="M239.8,297.6c1.6,0.8,3.1,1.6,4.6,2.4l4.6,2.5c3,1.7,6.1,3.4,9,5.1c3,1.7,6,3.5,8.9,5.3l4.4,2.7
			c1.5,1,2.9,1.9,4.4,2.8c-1.6-0.8-3.1-1.6-4.6-2.4l-4.6-2.5c-3-1.7-6-3.4-9-5.1s-6-3.5-8.9-5.3l-4.4-2.7
			C242.7,299.5,241.2,298.6,239.8,297.6z"/>
	</g>
</g>
<g id="freepik--character--inject-2_00000045606849536924366270000001261093583401106070_" class="st1">
	<g id="freepik--character--inject-2_00000106837730849924612050000014698218458643269553_" class="st3">
		<g id="freepik--Bottom--inject-2">
			<path class="st23" d="M272,327.8c-2,0.1-3.8,1.2-4.9,2.8c-0.8,2.7-1.2,5.5-1.2,8.3c0.1,4.9-1.3,9.6-3.9,13.7
				c-2.8,4.2-5.9,13.5-3.4,19.3s5.9,10.5,11.7,11.4s11.1-5.4,12.6-9.5L272,327.8z"/>
			<path class="st34" d="M260.7,368.5c-0.3-1.1-0.5-2.2-0.4-3.2c0.1-2.8,0.5-6.1,1.9-8.5c1.7-2.6,3.2-5.4,4.4-8.3
				c1.2-3.1,1.9-6.3,2.3-9.6c0.3-2.6,0.1-5.5,1.1-8c2.8-7.5,11.1-6.8,15.8-7.6l16.9-12.2l6.4,22.6c0,0-9.1,3.4-11.8,4.8
				c-3.5,1.9-6.8,6.3-8.9,9.5c-2.7,4.1-6,8.3-6.1,13.4c0.1,2.8,0.5,5.5,1.2,8.2c0.2,0.8,0.3,1.5,0.2,2.3c-0.2,2.1-2.1,3.7-3.9,4.9
				c-2.8,2-6.2,4.2-9.6,3.2c-1.9-0.6-3.4-2.1-4.7-3.6C263.4,374.1,261.7,371.5,260.7,368.5z"/>
			<path class="st14" d="M283,363.1c0-3.1,0.8-6.2,2.3-9c1.7-2.9,5.4-8.8,7-10.3s3.1-2.1,2.6-2.6s-10.1-2.9-13.3-2.9
				s-3.6,1.9-5.3,3.3c0,0,2.6-3.6,2.6-7.1c0-2.6,1.1-9.6,5.4-10.7l1.4-0.5c0,0,0.1-1-1.7-0.6s-8,1.7-10.2,3s-4.7,2.8-5.4,7.5
				s0,6.2-1.2,10.8c-1.1,4.2-2.7,8.2-5,11.8c-2.3,4.2-3.1,9-2.1,13.7L283,363.1z"/>
			<path class="st23" d="M379.6,237.4c0.1,8.3-1.6,31.9-7.2,53.2s-8.4,24.4-12.1,26.1c-16.2,7.8-59.6,20.2-59.6,20.2
				s-9.3-9.3-7.1-19.7c12.8-9.2,33.7-25,43.8-24.4l-19.1-60.8L379.6,237.4z"/>
			<path class="st35" d="M271.3,381.3c3.5,0,8.7-2.6,11.7-7.5c2.4-4,0.1-9.2,0-10.8c-0.3-0.6-4.5-2.3-11.8-1.2s-9.7,4.1-11.1,7.6
				C260.5,373.1,266.1,381.3,271.3,381.3z"/>
			<path class="st34" d="M391.1,403.5c-1.6,0.1-1.3-2-2.4-6.9s-4.4-25.8-4.4-25.8l-24.7,9.3c0,0,6.6,17.5,8.7,22.5
				c2.3,5.6,5.5,13.3,6.1,17.6s0.8,16.5,6.2,18.7s10.5-0.3,14.1-2.7s7.8-10.6,11.8-14.8s7.4-6.5,10.4-10.8s2.9-15-1.3-17.2
				s-10.1,0.3-13.6,2.4S394.1,403.3,391.1,403.5z"/>
			<path class="st14" d="M318.3,231.9c-7.4,17.2-9.7,34.3-2.1,48.6s13.8,22.8,30.8,55.1c0,7.3,0.2,14.5,5.5,28.1
				c6.6,16.9,13.8,35.1,13.8,35.1s6.7-10.9,21.5-9.1c-0.8-8.4-5.8-48.1-8.2-59.9c-3-14.6-14.8-64.7-14.8-64.7
				c8.9-6.6,14-17.1,13.8-28.1L318.3,231.9z"/>
			<path class="st14" d="M376.5,435.4c-1.2-3.2-1.9-6.7-2.5-13.1s-1.7-8.3-1.7-8.3s0.7-4.2,7.2-9.4s10.6-2.8,10.6-2.8
				s1.5,2.6,5.6-2.1l7.6,9.8L376.5,435.4z"/>
			<path class="st35" d="M416.3,392.8c-2.4-2.3-6.3-2.3-11.5,0.3c-3.4,1.6-6.5,3.9-9.1,6.6c0,0-2.7,4.9,1.4,8.3
				S416.3,392.8,416.3,392.8z"/>
			<path class="st23" d="M420,397.3c-0.2-1.4-0.9-2.6-2-3.5c-0.3-0.2-1.5-0.8-1.8-1c-3-2-8.5,2.3-13,6.4
				c-5.3,4.8-10.2,14.5-14.6,21.1s-9.7,9.1-11.4,12c-1.2,1.8-1,4.3,0.5,5.9c0.3,0.3,1.3,1.2,1.5,1.4c1.4,1.4,3.9,1.9,6.9,1.3
				c6-1.1,10.3-3,15.2-10.1s7.5-10.7,13.3-15.2S421.2,403,420,397.3z"/>
			<path class="st12" d="M420,397.3c-1.7-7.9-9.1-2.4-15,2.9c-5.3,4.8-10.2,14.5-14.6,21.1s-9.8,9-11.4,12c-3,5.4,1.1,8.8,7.1,7.6
				s10.3-3,15.2-10.1s7.5-10.7,13.3-15.2S421.2,403,420,397.3z"/>
			<path class="st23" d="M392.6,402.3L392.6,402.3c-1.8,0.8-2.5-0.4-2.5-0.4c-5.7,5.7-6.3,9.4-6.3,9.4S389.3,404.5,392.6,402.3z"/>
			<path class="st23" d="M358,267.4c3.9,9.1,7.2,18.4,9.8,28c2.9,9.5,5.2,19.1,7.1,28.8c1.6,9.7,3.1,19.5,4.5,29.3s2.8,19.5,4,29.3
				c-2-9.7-3.9-19.4-5.6-29.1c-1.8-9.7-3.4-19.4-5-29.1c-0.8-4.8-1.9-9.6-3-14.4s-2.3-9.6-3.5-14.3s-2.5-9.5-3.9-14.3
				S359.6,272,358,267.4z"/>
		</g>
		<g id="freepik--Top--inject-2">
			<path id="freepik--Arm--inject-2" class="st36" d="M372.1,176c7.7,2.6,11.5,4.2,15.4,15.2c2.6,7.5,9.1,30.3,9.1,30.3l34.1,18.5
				l-12.8,9.1c0,0-22.1-6.9-29.9-9.8c-4.5-1.7-6.4-4.1-9.4-10.9s-6.5-19.4-9-26.6L372.1,176z"/>
			<path class="st23" d="M372.9,175.7c7.6,2.8,10.9,3.9,14.7,14.5S397,221,397,221l27.5,15.1l-12.3,12.5c0,0-20.3-7.4-24-8.6
				s-6.1-2.2-8.5-7.7s-11.3-29.6-11.3-29.6L372.9,175.7z"/>
			<g id="freepik--Chest--inject-2">
				<path class="st35" d="M323,198.6c1.8-17.2,7.3-18.3,10.4-24.8c3.3-0.5,10.5-1.4,10.5-1.4s5.7-0.9,19.3,0l9,3.6
					c3.9,5,15.7,14,18.3,23.3c1.9,7.7-1.4,15.8-8.3,19.9c-0.8,6.2-2.2,14.8-2.2,14.8c0.1,5.7-0.1,11.4-0.6,17.1
					c0.3,5-10.6,10.8-27.2,10.1c-24.9-1-39.8-15.1-39.8-15.1l10.1-27C323.4,213.2,322.4,204.5,323,198.6z"/>
				<path class="st14" d="M364.7,173.8c0,0,14.8,9.9,21,17l-12.8-15.1l-7.9-3.8L364.7,173.8z"/>
				<path class="st6" d="M367.3,219.5c0,0-6,6-16.3,3.7c-10.7-2.3-11.8-11.5-11.8-11.5s-1.7,11.7,11.1,14.5
					C356.8,227.8,363.7,225.2,367.3,219.5z"/>
				<path class="st14" d="M346.5,171.3c0,15.3,0.7,41-14.3,59.8c-19.5,24.5-51.1,23-51.1,23c-4.2-5.1-7.8-10.8-10.7-16.8
					c13.6,14.8,21.6-17.3,40.5-24.3c0,0,11.3,0.5,11.1-10.2c-0.3-14,4.3-23.9,11.5-29L346.5,171.3z"/>
				<path class="st23" d="M328.1,235.7c-8.1,6.1-21.7,11.9-37,9.3s-20.8-7.7-20.8-7.7s4.3,12.7,10.6,16.8
					C281,254.1,306.6,257.2,328.1,235.7z"/>
			</g>
			<g id="freepik--Laptop--inject-2">
				<path class="st8" d="M361.4,260.5v1.2c0,1.2,0.7,2.3,1.8,2.8l32.2,17c1,0.5,2.3,0.5,3.3-0.1l56.8-35.4c1-0.6,1.6-1.7,1.5-2.9
					v-0.8L397,279.7L361.4,260.5z"/>
				<path class="st0" d="M456.9,242.2l-35-18.6c-0.6-0.3-1.4-0.3-2,0.1l-58.3,36.5c-0.2,0.1-0.3,0.4-0.2,0.6c0,0.1,0.1,0.1,0.2,0.2
					l35.4,18.8L456.9,242.2z"/>
				<polygon class="st6" points="396.5,276.8 377.7,266.8 430.7,233.6 449.7,243.6 				"/>
				<polygon class="st6" points="386.4,247.4 386.8,247.6 396,252.5 411.8,242.6 412.1,242.4 402.5,237.3 				"/>
				<polygon class="st4" points="386.8,247.6 396,252.5 411.8,242.6 402.6,237.7 				"/>
				<path class="st8" d="M397,279.7l0.1,2.2c0.6,0,1.1-0.2,1.6-0.5l56.7-35.4c1-0.6,1.6-1.7,1.5-2.9v-0.8L397,279.7z"/>
				<g class="st37">
					<path class="st6" d="M397,279.7l0.1,2.2c0.6,0,1.1-0.2,1.6-0.5l56.7-35.4c1-0.6,1.6-1.7,1.5-2.9v-0.8L397,279.7z"/>
				</g>
				<path class="st9" d="M397.9,280.1c1.1,0.4,2.4,0.2,3.4-0.4l56.5-35.3c1-0.6,1.6-1.6,1.8-2.8l5-37.8c0-0.2,0-0.4,0-0.6
					c0-1-0.5-2-1.3-2.8l-58.7,36.7c-0.7,0.5-1.2,1.2-1.3,2.1L397.9,280.1z"/>
				<g class="st38">
					<path class="st18" d="M397.9,280.1c1.1,0.4,2.4,0.2,3.4-0.4l56.5-35.3c1-0.6,1.6-1.6,1.8-2.8l5-37.8c0-0.2,0-0.4,0-0.6
						c0-1-0.5-2-1.3-2.8l-58.7,36.7c-0.7,0.5-1.2,1.2-1.3,2.1L397.9,280.1z"/>
				</g>
				<path class="st0" d="M397,279.7l0.4,0.2c0.2,0.1,0.4,0.2,0.5,0.2l5.4-40.9c0.1-0.9,0.6-1.6,1.3-2.1l58.7-36.7
					c-0.3-0.2-0.5-0.4-0.8-0.6l-58.8,36.7c-0.7,0.5-1.2,1.2-1.3,2.1L397,279.7z"/>
				<path class="st9" d="M429.1,244.3c0.3-2.5,2.8-6,5.5-7.7s4.7-1,4.3,1.5s-2.8,6-5.5,7.7S428.8,246.8,429.1,244.3z"/>
			</g>
			<g id="freepik--arm--inject-2">
				<path class="st36" d="M307.7,227.7c1.4-13.1,4.1-26,8.1-38.5c3-10,6.1-12.9,17.2-14.8c3.4,5.4,2.7,27.4,0.6,34.5l-3.9,18.6
					c5.4,3.3,11.1,6.2,16.9,8.8c7.2,3.2,11.7,4.6,19.2,3.9s10.4-1.6,14.6-0.8c2.2,0.4,7.3,1.4,9.1,1.9s5.2,2.7,8.3,4s0.1,3.2-2,3.1
					c-2.2-0.2-4.3-0.7-6.4-1.5c-1.8-0.4-3.5-0.7-5.4-0.8c1,1.8,1.7,3.6,2.3,5.5c0.2,1,0.8,2.3,0,3.2c-0.6,0.6-1.3,1-2,1.4
					c0.1,0.4,0,0.8-0.2,1.1c-0.4,0.5-1.1,0.8-1.8,0.9c-0.4,0.1-0.7,0.1-1.1,0.1c0.1,0.7-0.3,1.4-0.8,1.8c-1.4,0.8-2.9,1.2-4.5,1.1
					c-0.2,0-2.1-0.6-2.6-0.7c-0.7-0.1-1.3-0.3-1.9-0.7c-0.5-0.5,0.3-2,1.1-2.3c0.9-0.3,1.9-0.5,2.9-0.5c-0.6-0.7-1-1.5-1.4-2.3
					c-1-1.1-6.4,1.5-11.6,1.7c-3.9,0.2-7.4-2.8-9.3-3.2c-11.9-2.5-21-4-33.4-8.2C308.5,241.3,306.4,238.5,307.7,227.7z"/>
				<path class="st6" d="M339.5,251.3l5,1.4c-0.4-3,0.2-6,1.6-8.6c1.2-2.4,3-4.5,5.3-5.9l-3.4-1.4c0,0-4.1-0.4-6.8,5
					S339.5,251.3,339.5,251.3z"/>
				<path class="st23" d="M348,236.9c-4.8,0.5-7.1,7.8-7.3,11c-0.3,4.3,1.3,5.8,1.3,5.8s-25-7-29.6-10.4s-6.2-6-5.8-11.3
					s4-27.5,6.7-37.9s4.6-13.1,7.6-15.9s7.7-3.5,12.5-4.4c0,0,2.7,5.5,2.5,17c-0.2,10.9-0.8,14.2-1.8,19.4s-3.7,17.2-3.7,17.2
					L348,236.9z"/>
				<path class="st34" d="M385.1,246.1c-0.9-1.3-2.2-2.8-3.3-2.9c0.9,0.8,1.7,1.8,2.3,2.8L385.1,246.1z"/>
				<path class="st34" d="M384.4,256.2c-0.1-1.1-0.3-2.1-0.6-3.1c-0.3-1-0.7-2-1.1-3c-0.4-1-0.9-1.9-1.5-2.8
					c-0.6-0.9-1.4-1.6-2.4-2.1c0.4,0.3,0.8,0.6,1.1,1.1c0.3,0.4,0.6,0.8,0.9,1.3c0.5,0.9,1,1.8,1.3,2.8c0.4,1,0.8,1.9,1.2,2.9
					C383.8,254.2,384.1,255.2,384.4,256.2z"/>
				<path class="st34" d="M381.3,258.3c-0.1-1-0.3-2-0.7-3c-0.3-1-0.7-2-1.1-2.9c-0.4-1-0.9-1.9-1.5-2.8c-0.5-0.9-1.2-1.7-2.1-2.3
					c0.4,0.3,0.7,0.7,1,1.2c0.3,0.4,0.5,0.9,0.8,1.3c0.5,0.9,0.9,1.8,1.3,2.8C379.8,254.4,380.7,256.3,381.3,258.3z"/>
				<path class="st34" d="M372.6,257.5c0.4-0.1,0.9-0.1,1.3-0.1c0.4,0,0.8,0.1,1.3,0.2l-0.3-0.3c0,0.2,0.1,0.4,0.2,0.6
					c0.1,0.2,0.2,0.3,0.4,0.4c0.3,0.2,0.6,0.3,1,0.4c-0.3-0.2-0.5-0.4-0.7-0.7c-0.1-0.1-0.2-0.2-0.2-0.4c-0.1-0.1-0.1-0.2-0.1-0.3
					v-0.2h-0.3c-0.4-0.1-0.8-0.1-1.2,0C373.5,257.1,373,257.3,372.6,257.5z"/>
			</g>
			<path class="st12" d="M355,131.3c3.6,0,6.7-5,4-9s-10.3-5.8-14.7-6c-5.9-0.2-11.6,1.8-16.1,5.6c-2.1,1.8-3.9,4-6,5.7
				c-5.1,4.2-12.2,4-17.6,0.3c-2.4-1.6-4.4-3.9-6.9-5.2s-6-1.7-8,0.4c-0.8,0.9-1.3,2-1.6,3.1c-1.4,5.3,0,11.9,6.6,16.3
				c-1.7,0.6-5.1-1.7-6.2-3.6c0.6,3.6,1.9,8.6,9.1,13.8c9.7,7,19.6,6.3,27.2,3.7c13.4-4.6,14.2-16.4,19.4-20.6
				C347.2,133.1,351,131.6,355,131.3z"/>
			<path class="st23" d="M341.8,119.4c-10.1-1-12.6,11.6-8.3,21.2c7.6,17.1,30,13.7,30,13.7l2.3,12.7c0,0,3.5-2.9,9.1-7.1
				c9.8-7.3,9.4-21.8,4.2-25.4C381.7,122.3,357.3,108.2,341.8,119.4z"/>
			<path class="st36" d="M341,126.8c-3.4,1.3-6.9,8.5-8,23.1c-0.8,10.5,2.5,15.1,5.5,16.8c2.6,1.3,5.4,2,8.3,2.1l-0.3,2.6v2.1
				c0,0,8.7,16.1,23.2,21.2c3.1-10.4-4.9-20.9-4.9-20.9l2.6-15.8c0.5,1.3,4.5,3.7,7.9,0.6c4-3.8,4.1-9,1.4-11.4s-6.6-1.2-8.5,2.1
				c-3.4,0.8-7.2-3.2-5-15.6c-3.6-2.7-6.1,0.7-14.1-1.7C345.5,130.9,345.1,125.3,341,126.8z"/>
			<path class="st9" d="M373.7,156.6c0,0.9-0.8,1.7-1.7,1.7s-1.7-0.8-1.7-1.7s0.8-1.7,1.7-1.7c0,0,0,0,0,0
				C373,154.8,373.7,155.6,373.7,156.6C373.7,156.6,373.7,156.6,373.7,156.6z"/>
			<path class="st34" d="M346.8,168.8c11.7,0.4,15.4-4.1,17.1-8c-0.2,2.9-1.6,5.6-3.9,7.4c-6,4.2-13.5,3.1-13.5,3.1L346.8,168.8z"/>
			<path class="st12" d="M355,146.8c-0.2,1.1-1.1,1.8-2.2,1.6c-1.1-0.2-1.8-1.1-1.6-2.2s1.1-1.8,2.2-1.6c0,0,0,0,0,0
				C354.4,144.8,355.2,145.8,355,146.8z"/>
			<path class="st39" d="M350.6,158.6c0,1.2-1.1,0.7-2.5,0.7s-2.6,0.4-2.6-0.8c0.1-1.3,1.3-2.2,2.6-2.1
				C349.4,156.3,350.5,157.2,350.6,158.6C350.6,158.5,350.6,158.5,350.6,158.6z"/>
			<path class="st34" d="M346.5,159.3c0.5,0,1-0.1,1.6-0.1c1.4,0,2.5,0.5,2.5-0.7c0-0.4-0.1-0.8-0.4-1.1c-0.5-0.1-1-0.1-1.4,0
				C347.8,157.6,346.9,158.3,346.5,159.3z"/>
			<path class="st12" d="M341,144.3c-0.2,1.1-1.1,1.8-2.2,1.6c-1.1-0.2-1.8-1.1-1.6-2.2c0.2-1.1,1.1-1.8,2.2-1.6c0,0,0,0,0,0
				C340.4,142.3,341.2,143.3,341,144.3z"/>
			<path class="st12" d="M340.6,134.6l-3.7,2.9c0.7,1,2.1,1.3,3.1,0.6c0,0,0.1,0,0.1-0.1C341.1,137.2,341.4,135.7,340.6,134.6z"/>
			<path class="st12" d="M355.6,137.5l3.2,3.5c-0.9,0.9-2.3,0.9-3.2,0c0,0,0,0-0.1-0.1C354.6,139.9,354.6,138.4,355.6,137.5z"/>
			<polygon class="st34" points="347.1,142.5 344.3,154.2 338.9,151 			"/>
		</g>
	</g>
</g>
<g id="freepik--Lightnings--inject-2" class="st1">
	<g id="freepik--Bolts--inject-2" class="st3">
		<polygon class="st9" points="425.4,128.3 404.3,132.1 407.2,138.9 390.4,141.7 415,143.7 411,135.4 		"/>
		<polygon class="st9" points="410.1,91.9 389.5,115.8 396.6,119.2 388.1,133.7 405.2,116.9 398,112.5 		"/>
		<polygon class="st40" points="410.1,91.9 389.5,115.8 396.6,119.2 388.1,133.7 405.2,116.9 398,112.5 		"/>
	</g>
</g>
<g id="freepik--Alert--inject-2" class="st1">
	<g id="freepik--alert--inject-2_00000013151488600023134140000011885528751492114058_" class="st3">
		<g id="freepik--Bubble--inject-2">
			<path class="st9" d="M472.2,142.3c-3.1-1.8-7.3-1.5-12,1.2c-9.4,5.4-17.1,18.7-17.1,29.6c0,5.4,1.9,9.2,5,11l5.8,3.4
				c3.1,1.8,7.4,1.5,12-1.2c9.4-5.4,17.1-18.7,17.1-29.6c0-5.4-1.9-9.2-5-11C476.8,145,473.5,143.1,472.2,142.3z"/>
			<path class="st16" d="M472.2,142.3c-3.1-1.8-7.3-1.5-12,1.2c-9.4,5.4-17.1,18.7-17.1,29.6c0,5.4,1.9,9.2,5,11l5.8,3.4
				c3.1,1.8,7.4,1.5,12-1.2c9.4-5.4,17.1-18.7,17.1-29.6c0-5.4-1.9-9.2-5-11C476.8,145,473.5,143.1,472.2,142.3z"/>
			<path class="st9" d="M456.5,187.7c-1.1,1.7-2.5,3.2-4.3,4.2c-1.9,1.1-4.2,1.7-6.4,1.6c-0.1,0-0.2,0-0.3-0.1l-5.8-3.3
				c-0.3-0.2-0.4-0.5-0.2-0.8c0.1-0.1,0.1-0.2,0.2-0.2c3-1.6,5-4.6,5.3-8L456.5,187.7z"/>
			<path class="st41" d="M456.5,187.7c-1.1,1.7-2.5,3.2-4.3,4.2c-1.9,1.1-4.2,1.7-6.4,1.6c-0.1,0-0.2,0-0.3-0.1l-5.8-3.3
				c-0.3-0.2-0.4-0.5-0.2-0.8c0.1-0.1,0.1-0.2,0.2-0.2c3-1.6,5-4.6,5.3-8L456.5,187.7z"/>
			<ellipse transform="matrix(0.5 -0.866 0.866 0.5 88.7128 486.8288)" class="st9" cx="466" cy="166.6" rx="24.1" ry="13.9"/>
			<path class="st9" d="M450.8,181.9c0.6,4.3-1.5,8.5-5.3,10.6c-0.3,0.2-0.4,0.5-0.2,0.8c0.1,0.2,0.3,0.3,0.5,0.3
				c2.2,0.1,4.5-0.5,6.4-1.6c4.5-2.9,5.1-6.3,5.1-6.3L450.8,181.9z"/>
		</g>
		<g id="freepik--alert--inject-2">
			<path class="st0" d="M464.4,155.5l-8.1,23.3c-0.8,2.4,0.3,3.4,2.5,2.1l14.1-8.2c2.2-1.3,3-4.1,1.7-6.4c0,0,0,0,0,0l-6.5-11.2
				C467,152.9,465.3,153.1,464.4,155.5z"/>
			<path class="st14" d="M466.8,169.4l-1.2,0.7c-0.1,0.1-0.3,0.1-0.4,0c-0.1-0.1-0.1-0.1-0.1-0.2l-0.5-9.2c0-0.3,0.1-0.5,0.4-0.7
				l2.3-1.4c0.2-0.1,0.4,0,0.4,0.2l-0.5,9.8C467.2,169,467.1,169.3,466.8,169.4z"/>
			<path class="st14" d="M466.2,174.4c-0.8,0.4-1.3-0.1-1.3-1c0-1,0.5-1.8,1.3-2.4c0.8-0.4,1.2,0.1,1.2,0.9
				C467.5,172.9,467,173.8,466.2,174.4z"/>
		</g>
	</g>
</g>
<rect x="1" y="1.2" class="st42" width="501" height="499.5"/>
<text transform="matrix(1 0 0 1 100.0391 265.834)" class="st43 st44">Placeholder</text>
</svg>
